<mxfile host="app.diagrams.net" modified="2022-11-14T21:52:52.151Z" agent="5.0 (X11; Linux x86_64) AppleWebKit/537.36 (KHTML, like Gecko) Chrome/106.0.0.0 Safari/537.36 OPR/92.0.0.0" etag="XnSxFfXFFYfDTkLDoFDO" version="20.5.3" type="github" pages="5">
  <diagram name="esquema-ontologia" id="Pm1S7MLIWMfaJoxwRcDY">
    <mxGraphModel dx="6544" dy="1554" grid="1" gridSize="10" guides="1" tooltips="1" connect="1" arrows="1" fold="1" page="1" pageScale="1" pageWidth="3300" pageHeight="4681" math="0" shadow="0">
      <root>
        <mxCell id="SNAFjtu1Dfv9bOz4MxI_-0" />
        <mxCell id="SNAFjtu1Dfv9bOz4MxI_-1" parent="SNAFjtu1Dfv9bOz4MxI_-0" />
        <mxCell id="SNAFjtu1Dfv9bOz4MxI_-4" value="" style="rounded=1;whiteSpace=wrap;html=1;fillColor=none;arcSize=8;strokeColor=#6c8ebf;strokeWidth=3;" parent="SNAFjtu1Dfv9bOz4MxI_-1" vertex="1">
          <mxGeometry x="485" y="575" width="1095" height="645" as="geometry" />
        </mxCell>
        <mxCell id="SNAFjtu1Dfv9bOz4MxI_-142" value="" style="rounded=0;whiteSpace=wrap;html=1;fillColor=none;strokeWidth=2;strokeColor=#000000;" parent="SNAFjtu1Dfv9bOz4MxI_-1" vertex="1">
          <mxGeometry x="1040" y="882" width="290" height="80" as="geometry" />
        </mxCell>
        <mxCell id="SNAFjtu1Dfv9bOz4MxI_-2" value="" style="rounded=0;whiteSpace=wrap;html=1;fillColor=none;strokeWidth=2;strokeColor=#000000;" parent="SNAFjtu1Dfv9bOz4MxI_-1" vertex="1">
          <mxGeometry x="680" y="890" width="150" height="230" as="geometry" />
        </mxCell>
        <mxCell id="SNAFjtu1Dfv9bOz4MxI_-3" value="" style="rounded=0;whiteSpace=wrap;html=1;fillColor=none;strokeWidth=2;strokeColor=#000000;" parent="SNAFjtu1Dfv9bOz4MxI_-1" vertex="1">
          <mxGeometry x="510" y="1038" width="120" height="160" as="geometry" />
        </mxCell>
        <mxCell id="SNAFjtu1Dfv9bOz4MxI_-5" value="" style="rounded=1;whiteSpace=wrap;html=1;labelBackgroundColor=none;strokeWidth=3;fillColor=none;strokeColor=#d79b00;" parent="SNAFjtu1Dfv9bOz4MxI_-1" vertex="1">
          <mxGeometry x="-120" y="178" width="660" height="340" as="geometry" />
        </mxCell>
        <mxCell id="SNAFjtu1Dfv9bOz4MxI_-6" value="" style="rounded=1;whiteSpace=wrap;html=1;labelBackgroundColor=none;strokeWidth=3;fillColor=none;strokeColor=#82b366;" parent="SNAFjtu1Dfv9bOz4MxI_-1" vertex="1">
          <mxGeometry x="1210" y="300" width="1120" height="250" as="geometry" />
        </mxCell>
        <mxCell id="SNAFjtu1Dfv9bOz4MxI_-7" value="" style="rounded=0;whiteSpace=wrap;html=1;fillColor=none;strokeWidth=2;strokeColor=#000000;" parent="SNAFjtu1Dfv9bOz4MxI_-1" vertex="1">
          <mxGeometry x="1530" y="156" width="320" height="95" as="geometry" />
        </mxCell>
        <mxCell id="SNAFjtu1Dfv9bOz4MxI_-8" value="" style="rounded=0;whiteSpace=wrap;html=1;fillColor=none;strokeWidth=2;strokeColor=#000000;" parent="SNAFjtu1Dfv9bOz4MxI_-1" vertex="1">
          <mxGeometry x="845" y="745" width="590" height="100" as="geometry" />
        </mxCell>
        <mxCell id="SNAFjtu1Dfv9bOz4MxI_-10" value="" style="rounded=1;whiteSpace=wrap;html=1;labelBackgroundColor=none;strokeWidth=3;fillColor=none;strokeColor=#b85450;" parent="SNAFjtu1Dfv9bOz4MxI_-1" vertex="1">
          <mxGeometry x="630" y="90" width="750" height="340" as="geometry" />
        </mxCell>
        <mxCell id="SNAFjtu1Dfv9bOz4MxI_-11" style="edgeStyle=orthogonalEdgeStyle;rounded=0;orthogonalLoop=1;jettySize=auto;html=1;exitX=-0.001;exitY=0.263;exitDx=0;exitDy=0;exitPerimeter=0;entryX=1.001;entryY=0.15;entryDx=0;entryDy=0;entryPerimeter=0;" parent="SNAFjtu1Dfv9bOz4MxI_-1" source="SNAFjtu1Dfv9bOz4MxI_-189" edge="1">
          <mxGeometry relative="1" as="geometry">
            <mxPoint x="1079.3200000000006" y="643.5799999999999" as="sourcePoint" />
            <mxPoint x="690.0200000000003" y="636" as="targetPoint" />
            <Array as="points">
              <mxPoint x="1076" y="636" />
            </Array>
          </mxGeometry>
        </mxCell>
        <mxCell id="SNAFjtu1Dfv9bOz4MxI_-12" value="Se Geolocaliza en" style="edgeLabel;html=1;align=center;verticalAlign=middle;resizable=0;points=[];" parent="SNAFjtu1Dfv9bOz4MxI_-11" vertex="1" connectable="0">
          <mxGeometry x="0.4071" y="3" relative="1" as="geometry">
            <mxPoint x="51" y="-3" as="offset" />
          </mxGeometry>
        </mxCell>
        <mxCell id="SNAFjtu1Dfv9bOz4MxI_-13" value="" style="edgeStyle=orthogonalEdgeStyle;rounded=0;orthogonalLoop=1;jettySize=auto;html=1;exitX=0.002;exitY=0.834;exitDx=0;exitDy=0;exitPerimeter=0;" parent="SNAFjtu1Dfv9bOz4MxI_-1" source="SNAFjtu1Dfv9bOz4MxI_-189" target="SNAFjtu1Dfv9bOz4MxI_-176" edge="1">
          <mxGeometry relative="1" as="geometry">
            <mxPoint x="1220" y="670" as="sourcePoint" />
            <Array as="points">
              <mxPoint x="730" y="670" />
            </Array>
          </mxGeometry>
        </mxCell>
        <mxCell id="SNAFjtu1Dfv9bOz4MxI_-14" value="vacard:hasAddress" style="edgeLabel;html=1;align=center;verticalAlign=middle;resizable=0;points=[];" parent="SNAFjtu1Dfv9bOz4MxI_-13" vertex="1" connectable="0">
          <mxGeometry x="0.6384" y="2" relative="1" as="geometry">
            <mxPoint x="111" y="-2" as="offset" />
          </mxGeometry>
        </mxCell>
        <mxCell id="SNAFjtu1Dfv9bOz4MxI_-17" value="PoF" style="edgeStyle=orthogonalEdgeStyle;rounded=0;orthogonalLoop=1;jettySize=auto;html=1;entryX=0.431;entryY=1.011;entryDx=0;entryDy=0;entryPerimeter=0;exitX=0.5;exitY=0;exitDx=0;exitDy=0;" parent="SNAFjtu1Dfv9bOz4MxI_-1" source="SNAFjtu1Dfv9bOz4MxI_-8" target="SNAFjtu1Dfv9bOz4MxI_-189" edge="1">
          <mxGeometry x="-0.544" relative="1" as="geometry">
            <mxPoint x="1140" y="710" as="targetPoint" />
            <mxPoint as="offset" />
            <mxPoint x="1140" y="740" as="sourcePoint" />
          </mxGeometry>
        </mxCell>
        <mxCell id="SNAFjtu1Dfv9bOz4MxI_-18" value="Asociado a" style="edgeStyle=orthogonalEdgeStyle;rounded=0;orthogonalLoop=1;jettySize=auto;html=1;exitX=0;exitY=0.5;exitDx=0;exitDy=0;entryX=1;entryY=0.5;entryDx=0;entryDy=0;" parent="SNAFjtu1Dfv9bOz4MxI_-1" source="SNAFjtu1Dfv9bOz4MxI_-19" edge="1">
          <mxGeometry relative="1" as="geometry">
            <mxPoint x="1005" y="800" as="targetPoint" />
          </mxGeometry>
        </mxCell>
        <mxCell id="SNAFjtu1Dfv9bOz4MxI_-19" value="Espacio complementario" style="rounded=0;whiteSpace=wrap;html=1;" parent="SNAFjtu1Dfv9bOz4MxI_-1" vertex="1">
          <mxGeometry x="1125" y="770" width="120" height="60" as="geometry" />
        </mxCell>
        <mxCell id="SNAFjtu1Dfv9bOz4MxI_-22" value="Espacio auxiliar" style="rounded=0;whiteSpace=wrap;html=1;" parent="SNAFjtu1Dfv9bOz4MxI_-1" vertex="1">
          <mxGeometry x="1305" y="770" width="120" height="60" as="geometry" />
        </mxCell>
        <mxCell id="SNAFjtu1Dfv9bOz4MxI_-23" value="" style="edgeStyle=orthogonalEdgeStyle;rounded=0;orthogonalLoop=1;jettySize=auto;html=1;" parent="SNAFjtu1Dfv9bOz4MxI_-1" source="SNAFjtu1Dfv9bOz4MxI_-35" target="SNAFjtu1Dfv9bOz4MxI_-95" edge="1">
          <mxGeometry relative="1" as="geometry" />
        </mxCell>
        <mxCell id="SNAFjtu1Dfv9bOz4MxI_-24" value="hasService" style="edgeLabel;html=1;align=center;verticalAlign=middle;resizable=0;points=[];" parent="SNAFjtu1Dfv9bOz4MxI_-23" vertex="1" connectable="0">
          <mxGeometry x="0.0188" y="-3" relative="1" as="geometry">
            <mxPoint x="13" y="-33" as="offset" />
          </mxGeometry>
        </mxCell>
        <mxCell id="SNAFjtu1Dfv9bOz4MxI_-25" value="" style="edgeStyle=orthogonalEdgeStyle;rounded=0;orthogonalLoop=1;jettySize=auto;html=1;" parent="SNAFjtu1Dfv9bOz4MxI_-1" source="SNAFjtu1Dfv9bOz4MxI_-35" target="SNAFjtu1Dfv9bOz4MxI_-96" edge="1">
          <mxGeometry relative="1" as="geometry" />
        </mxCell>
        <mxCell id="SNAFjtu1Dfv9bOz4MxI_-26" value="isOfferedInPlace" style="edgeLabel;html=1;align=center;verticalAlign=middle;resizable=0;points=[];" parent="SNAFjtu1Dfv9bOz4MxI_-25" vertex="1" connectable="0">
          <mxGeometry x="0.5201" y="1" relative="1" as="geometry">
            <mxPoint x="1" y="-11" as="offset" />
          </mxGeometry>
        </mxCell>
        <mxCell id="SNAFjtu1Dfv9bOz4MxI_-27" value="" style="edgeStyle=orthogonalEdgeStyle;rounded=0;orthogonalLoop=1;jettySize=auto;html=1;" parent="SNAFjtu1Dfv9bOz4MxI_-1" source="SNAFjtu1Dfv9bOz4MxI_-35" target="SNAFjtu1Dfv9bOz4MxI_-97" edge="1">
          <mxGeometry relative="1" as="geometry" />
        </mxCell>
        <mxCell id="SNAFjtu1Dfv9bOz4MxI_-28" value="hasTemporalDuration" style="edgeLabel;html=1;align=center;verticalAlign=middle;resizable=0;points=[];" parent="SNAFjtu1Dfv9bOz4MxI_-27" vertex="1" connectable="0">
          <mxGeometry x="0.6822" relative="1" as="geometry">
            <mxPoint y="-5" as="offset" />
          </mxGeometry>
        </mxCell>
        <mxCell id="SNAFjtu1Dfv9bOz4MxI_-29" value="" style="edgeStyle=orthogonalEdgeStyle;rounded=0;orthogonalLoop=1;jettySize=auto;html=1;" parent="SNAFjtu1Dfv9bOz4MxI_-1" source="SNAFjtu1Dfv9bOz4MxI_-35" target="SNAFjtu1Dfv9bOz4MxI_-98" edge="1">
          <mxGeometry relative="1" as="geometry" />
        </mxCell>
        <mxCell id="SNAFjtu1Dfv9bOz4MxI_-30" value="isOfferedWithCosts" style="edgeLabel;html=1;align=center;verticalAlign=middle;resizable=0;points=[];" parent="SNAFjtu1Dfv9bOz4MxI_-29" vertex="1" connectable="0">
          <mxGeometry x="0.7602" y="-1" relative="1" as="geometry">
            <mxPoint x="-1" y="-21" as="offset" />
          </mxGeometry>
        </mxCell>
        <mxCell id="SNAFjtu1Dfv9bOz4MxI_-31" value="" style="edgeStyle=orthogonalEdgeStyle;rounded=0;orthogonalLoop=1;jettySize=auto;html=1;" parent="SNAFjtu1Dfv9bOz4MxI_-1" source="SNAFjtu1Dfv9bOz4MxI_-35" target="SNAFjtu1Dfv9bOz4MxI_-99" edge="1">
          <mxGeometry relative="1" as="geometry" />
        </mxCell>
        <mxCell id="SNAFjtu1Dfv9bOz4MxI_-32" value="isOfferedByTeacher" style="edgeLabel;html=1;align=center;verticalAlign=middle;resizable=0;points=[];" parent="SNAFjtu1Dfv9bOz4MxI_-31" vertex="1" connectable="0">
          <mxGeometry x="0.6577" y="2" relative="1" as="geometry">
            <mxPoint as="offset" />
          </mxGeometry>
        </mxCell>
        <mxCell id="SNAFjtu1Dfv9bOz4MxI_-33" style="edgeStyle=orthogonalEdgeStyle;rounded=0;orthogonalLoop=1;jettySize=auto;html=1;entryX=0.5;entryY=1;entryDx=0;entryDy=0;strokeColor=#000000;" parent="SNAFjtu1Dfv9bOz4MxI_-1" source="SNAFjtu1Dfv9bOz4MxI_-35" target="SNAFjtu1Dfv9bOz4MxI_-185" edge="1">
          <mxGeometry relative="1" as="geometry" />
        </mxCell>
        <mxCell id="SNAFjtu1Dfv9bOz4MxI_-34" value="hasDateTimeDescriptions" style="edgeLabel;html=1;align=center;verticalAlign=middle;resizable=0;points=[];" parent="SNAFjtu1Dfv9bOz4MxI_-33" vertex="1" connectable="0">
          <mxGeometry x="0.7694" y="1" relative="1" as="geometry">
            <mxPoint as="offset" />
          </mxGeometry>
        </mxCell>
        <mxCell id="SNAFjtu1Dfv9bOz4MxI_-35" value="ServicioOfrecido" style="rounded=0;whiteSpace=wrap;html=1;" parent="SNAFjtu1Dfv9bOz4MxI_-1" vertex="1">
          <mxGeometry x="1430" y="470" width="120" height="60" as="geometry" />
        </mxCell>
        <mxCell id="SNAFjtu1Dfv9bOz4MxI_-38" value="Espacio Deportivo Convencional" style="rounded=0;whiteSpace=wrap;html=1;" parent="SNAFjtu1Dfv9bOz4MxI_-1" vertex="1">
          <mxGeometry x="700" y="910" width="120" height="50" as="geometry" />
        </mxCell>
        <mxCell id="SNAFjtu1Dfv9bOz4MxI_-39" style="edgeStyle=orthogonalEdgeStyle;rounded=0;orthogonalLoop=1;jettySize=auto;html=1;entryX=0.349;entryY=1.02;entryDx=0;entryDy=0;entryPerimeter=0;exitX=1;exitY=0.5;exitDx=0;exitDy=0;" parent="SNAFjtu1Dfv9bOz4MxI_-1" source="SNAFjtu1Dfv9bOz4MxI_-2" edge="1">
          <mxGeometry relative="1" as="geometry">
            <mxPoint x="908.6800000000004" y="830.0000000000002" as="targetPoint" />
            <mxPoint x="831.33" y="1004.2" as="sourcePoint" />
            <Array as="points">
              <mxPoint x="908" y="1005" />
              <mxPoint x="908" y="830" />
            </Array>
          </mxGeometry>
        </mxCell>
        <mxCell id="SNAFjtu1Dfv9bOz4MxI_-40" value="sc" style="edgeLabel;html=1;align=center;verticalAlign=middle;resizable=0;points=[];" parent="SNAFjtu1Dfv9bOz4MxI_-39" vertex="1" connectable="0">
          <mxGeometry x="-0.6175" y="1" relative="1" as="geometry">
            <mxPoint x="-8" y="1" as="offset" />
          </mxGeometry>
        </mxCell>
        <mxCell id="SNAFjtu1Dfv9bOz4MxI_-41" value="Espacio Deportivo Singular" style="rounded=0;whiteSpace=wrap;html=1;" parent="SNAFjtu1Dfv9bOz4MxI_-1" vertex="1">
          <mxGeometry x="700" y="980" width="120" height="50" as="geometry" />
        </mxCell>
        <mxCell id="SNAFjtu1Dfv9bOz4MxI_-44" value="Área&amp;nbsp;de Actividad deportiva" style="rounded=0;whiteSpace=wrap;html=1;" parent="SNAFjtu1Dfv9bOz4MxI_-1" vertex="1">
          <mxGeometry x="700" y="1060" width="120" height="50" as="geometry" />
        </mxCell>
        <mxCell id="SNAFjtu1Dfv9bOz4MxI_-46" value="Espacio longitudinal" style="rounded=0;whiteSpace=wrap;html=1;" parent="SNAFjtu1Dfv9bOz4MxI_-1" vertex="1">
          <mxGeometry x="520" y="796" width="90" height="40" as="geometry" />
        </mxCell>
        <mxCell id="SNAFjtu1Dfv9bOz4MxI_-48" value="Pistas" style="rounded=0;whiteSpace=wrap;html=1;" parent="SNAFjtu1Dfv9bOz4MxI_-1" vertex="1">
          <mxGeometry x="520" y="846" width="90" height="30" as="geometry" />
        </mxCell>
        <mxCell id="SNAFjtu1Dfv9bOz4MxI_-50" value="Campos" style="rounded=0;whiteSpace=wrap;html=1;" parent="SNAFjtu1Dfv9bOz4MxI_-1" vertex="1">
          <mxGeometry x="520" y="886" width="90" height="30" as="geometry" />
        </mxCell>
        <mxCell id="SNAFjtu1Dfv9bOz4MxI_-52" value="Salas" style="rounded=0;whiteSpace=wrap;html=1;" parent="SNAFjtu1Dfv9bOz4MxI_-1" vertex="1">
          <mxGeometry x="520" y="926" width="90" height="30" as="geometry" />
        </mxCell>
        <mxCell id="SNAFjtu1Dfv9bOz4MxI_-53" value="sc" style="edgeStyle=orthogonalEdgeStyle;rounded=0;orthogonalLoop=1;jettySize=auto;html=1;exitX=1;exitY=0.5;exitDx=0;exitDy=0;" parent="SNAFjtu1Dfv9bOz4MxI_-1" source="SNAFjtu1Dfv9bOz4MxI_-141" target="SNAFjtu1Dfv9bOz4MxI_-38" edge="1">
          <mxGeometry x="0.0789" relative="1" as="geometry">
            <mxPoint as="offset" />
          </mxGeometry>
        </mxCell>
        <mxCell id="SNAFjtu1Dfv9bOz4MxI_-54" value="Vasos" style="rounded=0;whiteSpace=wrap;html=1;" parent="SNAFjtu1Dfv9bOz4MxI_-1" vertex="1">
          <mxGeometry x="520" y="966" width="90" height="30" as="geometry" />
        </mxCell>
        <mxCell id="SNAFjtu1Dfv9bOz4MxI_-56" value="Área&amp;nbsp;Acuatica" style="rounded=0;whiteSpace=wrap;html=1;" parent="SNAFjtu1Dfv9bOz4MxI_-1" vertex="1">
          <mxGeometry x="520" y="1048" width="100" height="40" as="geometry" />
        </mxCell>
        <mxCell id="SNAFjtu1Dfv9bOz4MxI_-57" style="edgeStyle=orthogonalEdgeStyle;rounded=0;orthogonalLoop=1;jettySize=auto;html=1;exitX=1;exitY=0.5;exitDx=0;exitDy=0;" parent="SNAFjtu1Dfv9bOz4MxI_-1" source="SNAFjtu1Dfv9bOz4MxI_-3" target="SNAFjtu1Dfv9bOz4MxI_-44" edge="1">
          <mxGeometry relative="1" as="geometry" />
        </mxCell>
        <mxCell id="iTcrw1jRtVvn0GTtSJmv-3" value="sc" style="edgeLabel;html=1;align=center;verticalAlign=middle;resizable=0;points=[];" parent="SNAFjtu1Dfv9bOz4MxI_-57" vertex="1" connectable="0">
          <mxGeometry x="0.2667" y="-1" relative="1" as="geometry">
            <mxPoint y="10" as="offset" />
          </mxGeometry>
        </mxCell>
        <mxCell id="SNAFjtu1Dfv9bOz4MxI_-58" value="Área terrestre" style="rounded=0;whiteSpace=wrap;html=1;" parent="SNAFjtu1Dfv9bOz4MxI_-1" vertex="1">
          <mxGeometry x="520" y="1098" width="100" height="40" as="geometry" />
        </mxCell>
        <mxCell id="SNAFjtu1Dfv9bOz4MxI_-61" value="Área&amp;nbsp;Aerea" style="rounded=0;whiteSpace=wrap;html=1;" parent="SNAFjtu1Dfv9bOz4MxI_-1" vertex="1">
          <mxGeometry x="520" y="1148" width="100" height="40" as="geometry" />
        </mxCell>
        <mxCell id="SNAFjtu1Dfv9bOz4MxI_-62" value="Espacio Deportivo" style="swimlane;fontStyle=0;childLayout=stackLayout;horizontal=1;startSize=30;horizontalStack=0;resizeParent=1;resizeParentMax=0;resizeLast=0;collapsible=1;marginBottom=0;" parent="SNAFjtu1Dfv9bOz4MxI_-1" vertex="1">
          <mxGeometry x="855" y="760" width="150" height="70" as="geometry" />
        </mxCell>
        <mxCell id="SNAFjtu1Dfv9bOz4MxI_-63" value="- Espacio Abierto/Cerrado" style="text;strokeColor=none;fillColor=none;align=left;verticalAlign=middle;spacingLeft=4;spacingRight=4;overflow=hidden;points=[[0,0.5],[1,0.5]];portConstraint=eastwest;rotatable=0;" parent="SNAFjtu1Dfv9bOz4MxI_-62" vertex="1">
          <mxGeometry y="30" width="150" height="40" as="geometry" />
        </mxCell>
        <mxCell id="SNAFjtu1Dfv9bOz4MxI_-64" value="sc" style="edgeStyle=orthogonalEdgeStyle;rounded=0;orthogonalLoop=1;jettySize=auto;html=1;exitX=0.5;exitY=0;exitDx=0;exitDy=0;entryX=0.5;entryY=1;entryDx=0;entryDy=0;" parent="SNAFjtu1Dfv9bOz4MxI_-1" source="SNAFjtu1Dfv9bOz4MxI_-142" target="SNAFjtu1Dfv9bOz4MxI_-19" edge="1">
          <mxGeometry x="-0.1698" relative="1" as="geometry">
            <mxPoint as="offset" />
          </mxGeometry>
        </mxCell>
        <mxCell id="SNAFjtu1Dfv9bOz4MxI_-65" value="Espacio complementario general" style="rounded=0;whiteSpace=wrap;html=1;" parent="SNAFjtu1Dfv9bOz4MxI_-1" vertex="1">
          <mxGeometry x="1060" y="892" width="120" height="60" as="geometry" />
        </mxCell>
        <mxCell id="SNAFjtu1Dfv9bOz4MxI_-67" value="Espacio complementario especifico" style="rounded=0;whiteSpace=wrap;html=1;" parent="SNAFjtu1Dfv9bOz4MxI_-1" vertex="1">
          <mxGeometry x="1200" y="892" width="120" height="60" as="geometry" />
        </mxCell>
        <mxCell id="SNAFjtu1Dfv9bOz4MxI_-68" style="edgeStyle=orthogonalEdgeStyle;rounded=0;orthogonalLoop=1;jettySize=auto;html=1;exitX=0;exitY=0.5;exitDx=0;exitDy=0;entryX=0.576;entryY=1.04;entryDx=0;entryDy=0;entryPerimeter=0;" parent="SNAFjtu1Dfv9bOz4MxI_-1" target="SNAFjtu1Dfv9bOz4MxI_-63" edge="1">
          <mxGeometry relative="1" as="geometry">
            <Array as="points">
              <mxPoint x="941" y="1020" />
              <mxPoint x="941" y="832" />
            </Array>
            <mxPoint x="1077.35" y="1020.34" as="sourcePoint" />
            <mxPoint x="920.0000000000006" y="829.6600000000007" as="targetPoint" />
          </mxGeometry>
        </mxCell>
        <mxCell id="SNAFjtu1Dfv9bOz4MxI_-69" value="Se realiza en" style="edgeLabel;html=1;align=center;verticalAlign=middle;resizable=0;points=[];" parent="SNAFjtu1Dfv9bOz4MxI_-68" vertex="1" connectable="0">
          <mxGeometry x="-0.2788" y="6" relative="1" as="geometry">
            <mxPoint x="28" y="-6" as="offset" />
          </mxGeometry>
        </mxCell>
        <mxCell id="SNAFjtu1Dfv9bOz4MxI_-70" value="Deporte" style="rounded=0;whiteSpace=wrap;html=1;" parent="SNAFjtu1Dfv9bOz4MxI_-1" vertex="1">
          <mxGeometry x="1065" y="995" width="120" height="50" as="geometry" />
        </mxCell>
        <mxCell id="SNAFjtu1Dfv9bOz4MxI_-71" style="edgeStyle=orthogonalEdgeStyle;rounded=0;orthogonalLoop=1;jettySize=auto;html=1;exitX=0.5;exitY=0;exitDx=0;exitDy=0;entryX=0.5;entryY=1;entryDx=0;entryDy=0;" parent="SNAFjtu1Dfv9bOz4MxI_-1" source="SNAFjtu1Dfv9bOz4MxI_-77" target="SNAFjtu1Dfv9bOz4MxI_-35" edge="1">
          <mxGeometry relative="1" as="geometry" />
        </mxCell>
        <mxCell id="SNAFjtu1Dfv9bOz4MxI_-72" value="consumes" style="edgeLabel;html=1;align=center;verticalAlign=middle;resizable=0;points=[];" parent="SNAFjtu1Dfv9bOz4MxI_-71" vertex="1" connectable="0">
          <mxGeometry x="-0.4882" relative="1" as="geometry">
            <mxPoint y="39" as="offset" />
          </mxGeometry>
        </mxCell>
        <mxCell id="SNAFjtu1Dfv9bOz4MxI_-73" style="edgeStyle=orthogonalEdgeStyle;rounded=0;orthogonalLoop=1;jettySize=auto;html=1;" parent="SNAFjtu1Dfv9bOz4MxI_-1" source="SNAFjtu1Dfv9bOz4MxI_-77" target="SNAFjtu1Dfv9bOz4MxI_-150" edge="1">
          <mxGeometry relative="1" as="geometry" />
        </mxCell>
        <mxCell id="SNAFjtu1Dfv9bOz4MxI_-74" value="sc" style="edgeLabel;html=1;align=center;verticalAlign=middle;resizable=0;points=[];" parent="SNAFjtu1Dfv9bOz4MxI_-73" vertex="1" connectable="0">
          <mxGeometry x="0.132" y="3" relative="1" as="geometry">
            <mxPoint x="-3" y="-4" as="offset" />
          </mxGeometry>
        </mxCell>
        <mxCell id="SNAFjtu1Dfv9bOz4MxI_-75" style="edgeStyle=orthogonalEdgeStyle;rounded=0;orthogonalLoop=1;jettySize=auto;html=1;entryX=1;entryY=0.5;entryDx=0;entryDy=0;exitX=0;exitY=0.5;exitDx=0;exitDy=0;" parent="SNAFjtu1Dfv9bOz4MxI_-1" source="SNAFjtu1Dfv9bOz4MxI_-77" target="SNAFjtu1Dfv9bOz4MxI_-70" edge="1">
          <mxGeometry relative="1" as="geometry">
            <Array as="points">
              <mxPoint x="1185" y="1020" />
            </Array>
          </mxGeometry>
        </mxCell>
        <mxCell id="SNAFjtu1Dfv9bOz4MxI_-76" value="practica" style="edgeLabel;html=1;align=center;verticalAlign=middle;resizable=0;points=[];" parent="SNAFjtu1Dfv9bOz4MxI_-75" vertex="1" connectable="0">
          <mxGeometry x="-0.5748" y="1" relative="1" as="geometry">
            <mxPoint x="-41" as="offset" />
          </mxGeometry>
        </mxCell>
        <mxCell id="SNAFjtu1Dfv9bOz4MxI_-77" value="Cliente" style="rounded=0;whiteSpace=wrap;html=1;" parent="SNAFjtu1Dfv9bOz4MxI_-1" vertex="1">
          <mxGeometry x="1430" y="990" width="120" height="60" as="geometry" />
        </mxCell>
        <mxCell id="SNAFjtu1Dfv9bOz4MxI_-78" style="edgeStyle=orthogonalEdgeStyle;rounded=0;orthogonalLoop=1;jettySize=auto;html=1;exitX=0.5;exitY=1;exitDx=0;exitDy=0;entryX=1.013;entryY=0.089;entryDx=0;entryDy=0;entryPerimeter=0;" parent="SNAFjtu1Dfv9bOz4MxI_-1" source="SNAFjtu1Dfv9bOz4MxI_-85" target="SNAFjtu1Dfv9bOz4MxI_-189" edge="1">
          <mxGeometry relative="1" as="geometry" />
        </mxCell>
        <mxCell id="SNAFjtu1Dfv9bOz4MxI_-79" value="gestiona" style="edgeLabel;html=1;align=center;verticalAlign=middle;resizable=0;points=[];" parent="SNAFjtu1Dfv9bOz4MxI_-78" vertex="1" connectable="0">
          <mxGeometry x="-0.298" y="1" relative="1" as="geometry">
            <mxPoint as="offset" />
          </mxGeometry>
        </mxCell>
        <mxCell id="SNAFjtu1Dfv9bOz4MxI_-80" style="edgeStyle=orthogonalEdgeStyle;rounded=0;orthogonalLoop=1;jettySize=auto;html=1;exitX=1;exitY=0.5;exitDx=0;exitDy=0;" parent="SNAFjtu1Dfv9bOz4MxI_-1" source="SNAFjtu1Dfv9bOz4MxI_-85" edge="1">
          <mxGeometry relative="1" as="geometry">
            <mxPoint x="1490" y="470" as="targetPoint" />
            <Array as="points">
              <mxPoint x="1490" y="360" />
              <mxPoint x="1490" y="470" />
            </Array>
          </mxGeometry>
        </mxCell>
        <mxCell id="SNAFjtu1Dfv9bOz4MxI_-81" value="Offers" style="edgeLabel;html=1;align=center;verticalAlign=middle;resizable=0;points=[];" parent="SNAFjtu1Dfv9bOz4MxI_-80" vertex="1" connectable="0">
          <mxGeometry x="0.1533" y="-1" relative="1" as="geometry">
            <mxPoint x="20" y="29" as="offset" />
          </mxGeometry>
        </mxCell>
        <mxCell id="SNAFjtu1Dfv9bOz4MxI_-82" value="sc" style="edgeStyle=orthogonalEdgeStyle;rounded=0;orthogonalLoop=1;jettySize=auto;html=1;entryX=0.5;entryY=1;entryDx=0;entryDy=0;strokeColor=#000000;exitX=0.5;exitY=0;exitDx=0;exitDy=0;" parent="SNAFjtu1Dfv9bOz4MxI_-1" source="SNAFjtu1Dfv9bOz4MxI_-85" target="SNAFjtu1Dfv9bOz4MxI_-174" edge="1">
          <mxGeometry relative="1" as="geometry">
            <Array as="points">
              <mxPoint x="1290" y="230" />
              <mxPoint x="1290" y="230" />
            </Array>
          </mxGeometry>
        </mxCell>
        <mxCell id="SNAFjtu1Dfv9bOz4MxI_-83" style="edgeStyle=orthogonalEdgeStyle;rounded=0;orthogonalLoop=1;jettySize=auto;html=1;strokeColor=#000000;exitX=0;exitY=0.75;exitDx=0;exitDy=0;entryX=1;entryY=0.5;entryDx=0;entryDy=0;" parent="SNAFjtu1Dfv9bOz4MxI_-1" source="SNAFjtu1Dfv9bOz4MxI_-85" target="SNAFjtu1Dfv9bOz4MxI_-109" edge="1">
          <mxGeometry relative="1" as="geometry">
            <Array as="points">
              <mxPoint x="590" y="380" />
              <mxPoint x="590" y="382" />
            </Array>
            <mxPoint x="580" y="340" as="targetPoint" />
          </mxGeometry>
        </mxCell>
        <mxCell id="SNAFjtu1Dfv9bOz4MxI_-84" value="hasRule" style="edgeLabel;html=1;align=center;verticalAlign=middle;resizable=0;points=[];" parent="SNAFjtu1Dfv9bOz4MxI_-83" vertex="1" connectable="0">
          <mxGeometry x="-0.1043" y="4" relative="1" as="geometry">
            <mxPoint x="-316" y="-4" as="offset" />
          </mxGeometry>
        </mxCell>
        <mxCell id="SNAFjtu1Dfv9bOz4MxI_-85" value="&lt;div style=&quot;text-align: center;&quot;&gt;&lt;span style=&quot;background-color: initial;&quot;&gt;&amp;nbsp; &amp;nbsp; &amp;nbsp; Organización&lt;/span&gt;&lt;/div&gt;&lt;span style=&quot;&quot;&gt;&lt;br&gt;&amp;nbsp; - Nombre&lt;/span&gt;&lt;br style=&quot;padding: 0px; margin: 0px;&quot;&gt;&lt;span style=&quot;&quot;&gt;&amp;nbsp; - Email&lt;/span&gt;&lt;br style=&quot;padding: 0px; margin: 0px;&quot;&gt;&lt;span style=&quot;&quot;&gt;&amp;nbsp; - Nº Teléfono&lt;/span&gt;" style="rounded=0;whiteSpace=wrap;html=1;align=left;" parent="SNAFjtu1Dfv9bOz4MxI_-1" vertex="1">
          <mxGeometry x="1230" y="320" width="120" height="80" as="geometry" />
        </mxCell>
        <mxCell id="SNAFjtu1Dfv9bOz4MxI_-86" style="edgeStyle=orthogonalEdgeStyle;rounded=0;orthogonalLoop=1;jettySize=auto;html=1;exitX=0.999;exitY=0.666;exitDx=0;exitDy=0;entryX=0;entryY=0.25;entryDx=0;entryDy=0;exitPerimeter=0;" parent="SNAFjtu1Dfv9bOz4MxI_-1" source="SNAFjtu1Dfv9bOz4MxI_-91" target="SNAFjtu1Dfv9bOz4MxI_-85" edge="1">
          <mxGeometry relative="1" as="geometry">
            <mxPoint x="1230" y="340" as="targetPoint" />
            <Array as="points" />
          </mxGeometry>
        </mxCell>
        <mxCell id="SNAFjtu1Dfv9bOz4MxI_-87" value="org:organization" style="edgeLabel;html=1;align=center;verticalAlign=middle;resizable=0;points=[];" parent="SNAFjtu1Dfv9bOz4MxI_-86" vertex="1" connectable="0">
          <mxGeometry x="0.0885" y="3" relative="1" as="geometry">
            <mxPoint x="-5" y="3" as="offset" />
          </mxGeometry>
        </mxCell>
        <mxCell id="SNAFjtu1Dfv9bOz4MxI_-88" value="org:role" style="edgeStyle=orthogonalEdgeStyle;rounded=0;orthogonalLoop=1;jettySize=auto;html=1;exitX=0;exitY=0.5;exitDx=0;exitDy=0;entryX=1;entryY=0.5;entryDx=0;entryDy=0;" parent="SNAFjtu1Dfv9bOz4MxI_-1" source="SNAFjtu1Dfv9bOz4MxI_-91" target="SNAFjtu1Dfv9bOz4MxI_-175" edge="1">
          <mxGeometry relative="1" as="geometry">
            <mxPoint x="642" y="346" as="targetPoint" />
          </mxGeometry>
        </mxCell>
        <mxCell id="SNAFjtu1Dfv9bOz4MxI_-89" style="edgeStyle=orthogonalEdgeStyle;rounded=0;orthogonalLoop=1;jettySize=auto;html=1;strokeColor=#000000;entryX=0.5;entryY=0;entryDx=0;entryDy=0;exitX=0.5;exitY=1;exitDx=0;exitDy=0;" parent="SNAFjtu1Dfv9bOz4MxI_-1" source="SNAFjtu1Dfv9bOz4MxI_-91" target="SNAFjtu1Dfv9bOz4MxI_-188" edge="1">
          <mxGeometry relative="1" as="geometry">
            <Array as="points">
              <mxPoint x="917" y="500" />
              <mxPoint x="1150" y="500" />
            </Array>
          </mxGeometry>
        </mxCell>
        <mxCell id="SNAFjtu1Dfv9bOz4MxI_-90" value="establecida en" style="edgeLabel;html=1;align=center;verticalAlign=middle;resizable=0;points=[];" parent="SNAFjtu1Dfv9bOz4MxI_-89" vertex="1" connectable="0">
          <mxGeometry x="0.0327" relative="1" as="geometry">
            <mxPoint as="offset" />
          </mxGeometry>
        </mxCell>
        <mxCell id="SNAFjtu1Dfv9bOz4MxI_-91" value="org:Membership" style="rounded=0;whiteSpace=wrap;html=1;" parent="SNAFjtu1Dfv9bOz4MxI_-1" vertex="1">
          <mxGeometry x="857" y="301" width="120" height="60" as="geometry" />
        </mxCell>
        <mxCell id="SNAFjtu1Dfv9bOz4MxI_-92" value="Pattern 3: Service offered" style="text;html=1;strokeColor=#82b366;fillColor=#d5e8d4;align=center;verticalAlign=middle;whiteSpace=wrap;rounded=0;strokeWidth=3;" parent="SNAFjtu1Dfv9bOz4MxI_-1" vertex="1">
          <mxGeometry x="2110" y="520" width="140" height="30" as="geometry" />
        </mxCell>
        <mxCell id="SNAFjtu1Dfv9bOz4MxI_-94" value="sc" style="edgeStyle=orthogonalEdgeStyle;rounded=0;orthogonalLoop=1;jettySize=auto;html=1;entryX=0.5;entryY=0;entryDx=0;entryDy=0;exitX=0.5;exitY=1;exitDx=0;exitDy=0;" parent="SNAFjtu1Dfv9bOz4MxI_-1" source="SNAFjtu1Dfv9bOz4MxI_-7" target="SNAFjtu1Dfv9bOz4MxI_-95" edge="1">
          <mxGeometry x="-0.519" relative="1" as="geometry">
            <mxPoint x="1920" y="190" as="targetPoint" />
            <Array as="points">
              <mxPoint x="1690" y="290" />
              <mxPoint x="1690" y="290" />
            </Array>
            <mxPoint x="1740" y="230" as="sourcePoint" />
            <mxPoint as="offset" />
          </mxGeometry>
        </mxCell>
        <mxCell id="SNAFjtu1Dfv9bOz4MxI_-95" value="Servicio" style="whiteSpace=wrap;html=1;rounded=0;" parent="SNAFjtu1Dfv9bOz4MxI_-1" vertex="1">
          <mxGeometry x="1630" y="330" width="120" height="60" as="geometry" />
        </mxCell>
        <mxCell id="SNAFjtu1Dfv9bOz4MxI_-96" value="Instalación Deportiva" style="whiteSpace=wrap;html=1;rounded=0;dashed=1;" parent="SNAFjtu1Dfv9bOz4MxI_-1" vertex="1">
          <mxGeometry x="1770" y="330" width="120" height="60" as="geometry" />
        </mxCell>
        <mxCell id="SNAFjtu1Dfv9bOz4MxI_-97" value="time:DurationDescription" style="whiteSpace=wrap;html=1;rounded=0;" parent="SNAFjtu1Dfv9bOz4MxI_-1" vertex="1">
          <mxGeometry x="1900" y="330" width="140" height="60" as="geometry" />
        </mxCell>
        <mxCell id="SNAFjtu1Dfv9bOz4MxI_-98" value="PriceSpecification&lt;font style=&quot;font-size: 11px;&quot;&gt;&lt;br&gt;&lt;/font&gt;&lt;br&gt;&lt;div style=&quot;text-align: left;&quot;&gt;&lt;span style=&quot;background-color: initial;&quot;&gt;- Precio&lt;/span&gt;&lt;/div&gt;&lt;div style=&quot;text-align: left;&quot;&gt;&lt;span style=&quot;background-color: initial;&quot;&gt;- Moneda&lt;/span&gt;&lt;/div&gt;" style="whiteSpace=wrap;html=1;rounded=0;" parent="SNAFjtu1Dfv9bOz4MxI_-1" vertex="1">
          <mxGeometry x="2180" y="320" width="120" height="70" as="geometry" />
        </mxCell>
        <mxCell id="SNAFjtu1Dfv9bOz4MxI_-99" value="Entrenador" style="whiteSpace=wrap;html=1;rounded=0;dashed=1;" parent="SNAFjtu1Dfv9bOz4MxI_-1" vertex="1">
          <mxGeometry x="1710" y="700" width="120" height="60" as="geometry" />
        </mxCell>
        <mxCell id="SNAFjtu1Dfv9bOz4MxI_-100" value="T-Box" style="text;html=1;strokeColor=#6c8ebf;fillColor=#dae8fc;align=center;verticalAlign=middle;whiteSpace=wrap;rounded=0;labelBackgroundColor=none;strokeWidth=3;" parent="SNAFjtu1Dfv9bOz4MxI_-1" vertex="1">
          <mxGeometry x="950" y="1190" width="60" height="30" as="geometry" />
        </mxCell>
        <mxCell id="SNAFjtu1Dfv9bOz4MxI_-101" value="Org" style="text;html=1;strokeColor=#b85450;fillColor=#f8cecc;align=center;verticalAlign=middle;whiteSpace=wrap;rounded=0;labelBackgroundColor=none;strokeWidth=3;" parent="SNAFjtu1Dfv9bOz4MxI_-1" vertex="1">
          <mxGeometry x="690" y="90" width="60" height="30" as="geometry" />
        </mxCell>
        <mxCell id="SNAFjtu1Dfv9bOz4MxI_-102" value="" style="edgeStyle=orthogonalEdgeStyle;rounded=0;orthogonalLoop=1;jettySize=auto;html=1;" parent="SNAFjtu1Dfv9bOz4MxI_-1" source="SNAFjtu1Dfv9bOz4MxI_-109" target="SNAFjtu1Dfv9bOz4MxI_-112" edge="1">
          <mxGeometry relative="1" as="geometry" />
        </mxCell>
        <mxCell id="SNAFjtu1Dfv9bOz4MxI_-103" value="odrl:target" style="edgeLabel;html=1;align=center;verticalAlign=middle;resizable=0;points=[];" parent="SNAFjtu1Dfv9bOz4MxI_-102" vertex="1" connectable="0">
          <mxGeometry x="0.2667" y="-2" relative="1" as="geometry">
            <mxPoint y="2" as="offset" />
          </mxGeometry>
        </mxCell>
        <mxCell id="SNAFjtu1Dfv9bOz4MxI_-104" value="" style="edgeStyle=orthogonalEdgeStyle;rounded=0;orthogonalLoop=1;jettySize=auto;html=1;entryX=1;entryY=0.5;entryDx=0;entryDy=0;exitX=0;exitY=0.5;exitDx=0;exitDy=0;" parent="SNAFjtu1Dfv9bOz4MxI_-1" source="SNAFjtu1Dfv9bOz4MxI_-109" edge="1">
          <mxGeometry relative="1" as="geometry">
            <mxPoint x="390" y="373" as="sourcePoint" />
            <mxPoint x="240" y="298" as="targetPoint" />
            <Array as="points">
              <mxPoint x="350" y="383" />
              <mxPoint x="350" y="298" />
            </Array>
          </mxGeometry>
        </mxCell>
        <mxCell id="SNAFjtu1Dfv9bOz4MxI_-105" value="odrl:action" style="edgeLabel;html=1;align=center;verticalAlign=middle;resizable=0;points=[];" parent="SNAFjtu1Dfv9bOz4MxI_-104" vertex="1" connectable="0">
          <mxGeometry x="0.3787" y="5" relative="1" as="geometry">
            <mxPoint x="-13" y="-5" as="offset" />
          </mxGeometry>
        </mxCell>
        <mxCell id="SNAFjtu1Dfv9bOz4MxI_-106" value="" style="edgeStyle=orthogonalEdgeStyle;rounded=0;orthogonalLoop=1;jettySize=auto;html=1;" parent="SNAFjtu1Dfv9bOz4MxI_-1" source="SNAFjtu1Dfv9bOz4MxI_-109" target="SNAFjtu1Dfv9bOz4MxI_-121" edge="1">
          <mxGeometry relative="1" as="geometry">
            <Array as="points">
              <mxPoint x="350" y="383" />
              <mxPoint x="350" y="238" />
            </Array>
          </mxGeometry>
        </mxCell>
        <mxCell id="SNAFjtu1Dfv9bOz4MxI_-107" value="odrl:constraint" style="edgeLabel;html=1;align=center;verticalAlign=middle;resizable=0;points=[];" parent="SNAFjtu1Dfv9bOz4MxI_-106" vertex="1" connectable="0">
          <mxGeometry x="0.5164" relative="1" as="geometry">
            <mxPoint x="-13" as="offset" />
          </mxGeometry>
        </mxCell>
        <mxCell id="SNAFjtu1Dfv9bOz4MxI_-108" value="sc" style="edgeStyle=orthogonalEdgeStyle;rounded=0;orthogonalLoop=1;jettySize=auto;html=1;" parent="SNAFjtu1Dfv9bOz4MxI_-1" source="SNAFjtu1Dfv9bOz4MxI_-109" target="SNAFjtu1Dfv9bOz4MxI_-161" edge="1">
          <mxGeometry relative="1" as="geometry" />
        </mxCell>
        <mxCell id="SNAFjtu1Dfv9bOz4MxI_-109" value="Obligatorio llevar gorro" style="whiteSpace=wrap;html=1;rounded=0;" parent="SNAFjtu1Dfv9bOz4MxI_-1" vertex="1">
          <mxGeometry x="390" y="352" width="120" height="60" as="geometry" />
        </mxCell>
        <mxCell id="SNAFjtu1Dfv9bOz4MxI_-110" style="edgeStyle=orthogonalEdgeStyle;rounded=0;orthogonalLoop=1;jettySize=auto;html=1;" parent="SNAFjtu1Dfv9bOz4MxI_-1" source="SNAFjtu1Dfv9bOz4MxI_-112" target="SNAFjtu1Dfv9bOz4MxI_-164" edge="1">
          <mxGeometry relative="1" as="geometry" />
        </mxCell>
        <mxCell id="SNAFjtu1Dfv9bOz4MxI_-111" value="sc" style="edgeLabel;html=1;align=center;verticalAlign=middle;resizable=0;points=[];" parent="SNAFjtu1Dfv9bOz4MxI_-110" vertex="1" connectable="0">
          <mxGeometry x="-0.2398" relative="1" as="geometry">
            <mxPoint as="offset" />
          </mxGeometry>
        </mxCell>
        <mxCell id="SNAFjtu1Dfv9bOz4MxI_-112" value="Gorro de baño" style="whiteSpace=wrap;html=1;rounded=0;" parent="SNAFjtu1Dfv9bOz4MxI_-1" vertex="1">
          <mxGeometry x="120" y="353" width="120" height="60" as="geometry" />
        </mxCell>
        <mxCell id="SNAFjtu1Dfv9bOz4MxI_-113" value="sc" style="edgeStyle=orthogonalEdgeStyle;rounded=0;orthogonalLoop=1;jettySize=auto;html=1;" parent="SNAFjtu1Dfv9bOz4MxI_-1" source="SNAFjtu1Dfv9bOz4MxI_-114" target="SNAFjtu1Dfv9bOz4MxI_-163" edge="1">
          <mxGeometry relative="1" as="geometry" />
        </mxCell>
        <mxCell id="SNAFjtu1Dfv9bOz4MxI_-114" value="LLevar puesto" style="whiteSpace=wrap;html=1;rounded=0;" parent="SNAFjtu1Dfv9bOz4MxI_-1" vertex="1">
          <mxGeometry x="120" y="278" width="120" height="60" as="geometry" />
        </mxCell>
        <mxCell id="SNAFjtu1Dfv9bOz4MxI_-115" value="" style="edgeStyle=orthogonalEdgeStyle;rounded=0;orthogonalLoop=1;jettySize=auto;html=1;exitX=0;exitY=0.5;exitDx=0;exitDy=0;" parent="SNAFjtu1Dfv9bOz4MxI_-1" source="SNAFjtu1Dfv9bOz4MxI_-109" target="SNAFjtu1Dfv9bOz4MxI_-118" edge="1">
          <mxGeometry relative="1" as="geometry">
            <mxPoint x="380" y="398" as="sourcePoint" />
            <Array as="points">
              <mxPoint x="350" y="383" />
              <mxPoint x="350" y="468" />
            </Array>
          </mxGeometry>
        </mxCell>
        <mxCell id="SNAFjtu1Dfv9bOz4MxI_-116" value="odrl:asignee" style="edgeLabel;html=1;align=center;verticalAlign=middle;resizable=0;points=[];" parent="SNAFjtu1Dfv9bOz4MxI_-115" vertex="1" connectable="0">
          <mxGeometry x="0.7106" y="1" relative="1" as="geometry">
            <mxPoint x="26" y="-1" as="offset" />
          </mxGeometry>
        </mxCell>
        <mxCell id="SNAFjtu1Dfv9bOz4MxI_-117" value="sc" style="edgeStyle=orthogonalEdgeStyle;rounded=0;orthogonalLoop=1;jettySize=auto;html=1;entryX=1;entryY=0.5;entryDx=0;entryDy=0;" parent="SNAFjtu1Dfv9bOz4MxI_-1" source="SNAFjtu1Dfv9bOz4MxI_-118" target="SNAFjtu1Dfv9bOz4MxI_-165" edge="1">
          <mxGeometry relative="1" as="geometry" />
        </mxCell>
        <mxCell id="SNAFjtu1Dfv9bOz4MxI_-118" value="Clientes" style="whiteSpace=wrap;html=1;rounded=0;" parent="SNAFjtu1Dfv9bOz4MxI_-1" vertex="1">
          <mxGeometry x="120" y="428" width="120" height="60" as="geometry" />
        </mxCell>
        <mxCell id="SNAFjtu1Dfv9bOz4MxI_-119" value="Odrl" style="text;html=1;strokeColor=#d79b00;fillColor=#ffe6cc;align=center;verticalAlign=middle;whiteSpace=wrap;rounded=0;labelBackgroundColor=none;strokeWidth=3;" parent="SNAFjtu1Dfv9bOz4MxI_-1" vertex="1">
          <mxGeometry x="340" y="178" width="100" height="30" as="geometry" />
        </mxCell>
        <mxCell id="SNAFjtu1Dfv9bOz4MxI_-120" value="sc" style="edgeStyle=orthogonalEdgeStyle;rounded=0;orthogonalLoop=1;jettySize=auto;html=1;entryX=1;entryY=0.5;entryDx=0;entryDy=0;" parent="SNAFjtu1Dfv9bOz4MxI_-1" source="SNAFjtu1Dfv9bOz4MxI_-121" target="SNAFjtu1Dfv9bOz4MxI_-162" edge="1">
          <mxGeometry relative="1" as="geometry" />
        </mxCell>
        <mxCell id="SNAFjtu1Dfv9bOz4MxI_-121" value="En la piscina" style="whiteSpace=wrap;html=1;rounded=0;" parent="SNAFjtu1Dfv9bOz4MxI_-1" vertex="1">
          <mxGeometry x="120" y="208" width="120" height="60" as="geometry" />
        </mxCell>
        <mxCell id="SNAFjtu1Dfv9bOz4MxI_-141" value="" style="rounded=0;whiteSpace=wrap;html=1;fillColor=none;strokeWidth=2;strokeColor=#000000;" parent="SNAFjtu1Dfv9bOz4MxI_-1" vertex="1">
          <mxGeometry x="505" y="786" width="120" height="220" as="geometry" />
        </mxCell>
        <mxCell id="SNAFjtu1Dfv9bOz4MxI_-143" value="Leyenda" style="swimlane;strokeColor=#080507;strokeWidth=2;fillColor=none;" parent="SNAFjtu1Dfv9bOz4MxI_-1" vertex="1">
          <mxGeometry x="1750" y="900" width="190" height="130" as="geometry" />
        </mxCell>
        <mxCell id="SNAFjtu1Dfv9bOz4MxI_-146" value="" style="whiteSpace=wrap;html=1;rounded=0;dashed=1;" parent="SNAFjtu1Dfv9bOz4MxI_-143" vertex="1">
          <mxGeometry x="20" y="42.5" width="20" height="17.5" as="geometry" />
        </mxCell>
        <mxCell id="SNAFjtu1Dfv9bOz4MxI_-147" value="Concepto ya existente" style="text;html=1;strokeColor=none;fillColor=none;align=center;verticalAlign=middle;whiteSpace=wrap;rounded=0;strokeWidth=2;" parent="SNAFjtu1Dfv9bOz4MxI_-143" vertex="1">
          <mxGeometry x="50" y="37.5" width="130" height="30" as="geometry" />
        </mxCell>
        <mxCell id="SNAFjtu1Dfv9bOz4MxI_-148" value="PoF = Part Of" style="text;html=1;strokeColor=none;fillColor=none;align=left;verticalAlign=middle;whiteSpace=wrap;rounded=0;" parent="SNAFjtu1Dfv9bOz4MxI_-143" vertex="1">
          <mxGeometry x="20" y="71" width="150" height="20" as="geometry" />
        </mxCell>
        <mxCell id="SNAFjtu1Dfv9bOz4MxI_-149" value="sc = Subclass Of" style="text;html=1;strokeColor=none;fillColor=none;align=left;verticalAlign=middle;whiteSpace=wrap;rounded=0;" parent="SNAFjtu1Dfv9bOz4MxI_-143" vertex="1">
          <mxGeometry x="20" y="93" width="150" height="20" as="geometry" />
        </mxCell>
        <mxCell id="SNAFjtu1Dfv9bOz4MxI_-150" value="foaf: Person" style="rounded=0;whiteSpace=wrap;html=1;" parent="SNAFjtu1Dfv9bOz4MxI_-1" vertex="1">
          <mxGeometry x="1430" y="1110" width="120" height="60" as="geometry" />
        </mxCell>
        <mxCell id="SNAFjtu1Dfv9bOz4MxI_-151" value="foaf:Person" style="rounded=0;whiteSpace=wrap;html=1;" parent="SNAFjtu1Dfv9bOz4MxI_-1" vertex="1">
          <mxGeometry x="890" y="24" width="120" height="60" as="geometry" />
        </mxCell>
        <mxCell id="SNAFjtu1Dfv9bOz4MxI_-152" value="org:member" style="edgeStyle=orthogonalEdgeStyle;rounded=0;orthogonalLoop=1;jettySize=auto;html=1;exitX=1;exitY=0.5;exitDx=0;exitDy=0;" parent="SNAFjtu1Dfv9bOz4MxI_-1" source="SNAFjtu1Dfv9bOz4MxI_-155" target="SNAFjtu1Dfv9bOz4MxI_-91" edge="1">
          <mxGeometry x="0.3935" relative="1" as="geometry">
            <mxPoint as="offset" />
            <Array as="points">
              <mxPoint x="867" y="200" />
            </Array>
          </mxGeometry>
        </mxCell>
        <mxCell id="SNAFjtu1Dfv9bOz4MxI_-153" style="edgeStyle=orthogonalEdgeStyle;rounded=0;orthogonalLoop=1;jettySize=auto;html=1;entryX=0;entryY=0.5;entryDx=0;entryDy=0;exitX=0.5;exitY=0;exitDx=0;exitDy=0;" parent="SNAFjtu1Dfv9bOz4MxI_-1" source="SNAFjtu1Dfv9bOz4MxI_-155" target="SNAFjtu1Dfv9bOz4MxI_-151" edge="1">
          <mxGeometry relative="1" as="geometry">
            <Array as="points">
              <mxPoint x="785" y="54" />
            </Array>
          </mxGeometry>
        </mxCell>
        <mxCell id="SNAFjtu1Dfv9bOz4MxI_-154" value="sc" style="edgeLabel;html=1;align=center;verticalAlign=middle;resizable=0;points=[];" parent="SNAFjtu1Dfv9bOz4MxI_-153" vertex="1" connectable="0">
          <mxGeometry x="-0.1633" y="-2" relative="1" as="geometry">
            <mxPoint x="-2" y="62" as="offset" />
          </mxGeometry>
        </mxCell>
        <mxCell id="SNAFjtu1Dfv9bOz4MxI_-155" value="Monitor" style="rounded=0;whiteSpace=wrap;html=1;" parent="SNAFjtu1Dfv9bOz4MxI_-1" vertex="1">
          <mxGeometry x="725" y="171" width="120" height="60" as="geometry" />
        </mxCell>
        <mxCell id="SNAFjtu1Dfv9bOz4MxI_-156" value="" style="edgeStyle=orthogonalEdgeStyle;rounded=0;orthogonalLoop=1;jettySize=auto;html=1;entryX=0.75;entryY=0;entryDx=0;entryDy=0;exitX=0.5;exitY=1;exitDx=0;exitDy=0;" parent="SNAFjtu1Dfv9bOz4MxI_-1" source="SNAFjtu1Dfv9bOz4MxI_-160" target="SNAFjtu1Dfv9bOz4MxI_-91" edge="1">
          <mxGeometry relative="1" as="geometry">
            <mxPoint x="1107" y="254" as="targetPoint" />
            <Array as="points" />
          </mxGeometry>
        </mxCell>
        <mxCell id="SNAFjtu1Dfv9bOz4MxI_-157" value="org:member" style="edgeLabel;html=1;align=center;verticalAlign=middle;resizable=0;points=[];" parent="SNAFjtu1Dfv9bOz4MxI_-156" vertex="1" connectable="0">
          <mxGeometry x="-0.2429" relative="1" as="geometry">
            <mxPoint x="-33" as="offset" />
          </mxGeometry>
        </mxCell>
        <mxCell id="SNAFjtu1Dfv9bOz4MxI_-158" style="edgeStyle=orthogonalEdgeStyle;rounded=0;orthogonalLoop=1;jettySize=auto;html=1;entryX=1;entryY=0.5;entryDx=0;entryDy=0;exitX=0.5;exitY=0;exitDx=0;exitDy=0;" parent="SNAFjtu1Dfv9bOz4MxI_-1" target="SNAFjtu1Dfv9bOz4MxI_-151" edge="1" source="SNAFjtu1Dfv9bOz4MxI_-160">
          <mxGeometry relative="1" as="geometry">
            <Array as="points">
              <mxPoint x="1120" y="54" />
            </Array>
            <mxPoint x="1120" y="140" as="sourcePoint" />
            <mxPoint x="1010" y="24" as="targetPoint" />
          </mxGeometry>
        </mxCell>
        <mxCell id="SNAFjtu1Dfv9bOz4MxI_-159" value="sc" style="edgeLabel;html=1;align=center;verticalAlign=middle;resizable=0;points=[];" parent="SNAFjtu1Dfv9bOz4MxI_-158" vertex="1" connectable="0">
          <mxGeometry x="0.2617" relative="1" as="geometry">
            <mxPoint x="26" y="86" as="offset" />
          </mxGeometry>
        </mxCell>
        <mxCell id="SNAFjtu1Dfv9bOz4MxI_-160" value="Entrenador" style="rounded=0;whiteSpace=wrap;html=1;" parent="SNAFjtu1Dfv9bOz4MxI_-1" vertex="1">
          <mxGeometry x="1060" y="170" width="120" height="60" as="geometry" />
        </mxCell>
        <mxCell id="SNAFjtu1Dfv9bOz4MxI_-161" value="odrl:Rule" style="whiteSpace=wrap;html=1;rounded=0;" parent="SNAFjtu1Dfv9bOz4MxI_-1" vertex="1">
          <mxGeometry x="390" y="248" width="120" height="60" as="geometry" />
        </mxCell>
        <mxCell id="SNAFjtu1Dfv9bOz4MxI_-162" value="odrl:Constraint" style="whiteSpace=wrap;html=1;rounded=0;" parent="SNAFjtu1Dfv9bOz4MxI_-1" vertex="1">
          <mxGeometry x="-80" y="208" width="120" height="60" as="geometry" />
        </mxCell>
        <mxCell id="SNAFjtu1Dfv9bOz4MxI_-163" value="odrl:Action" style="whiteSpace=wrap;html=1;rounded=0;" parent="SNAFjtu1Dfv9bOz4MxI_-1" vertex="1">
          <mxGeometry x="-80" y="278" width="120" height="60" as="geometry" />
        </mxCell>
        <mxCell id="SNAFjtu1Dfv9bOz4MxI_-164" value="odrl:Asset" style="whiteSpace=wrap;html=1;rounded=0;" parent="SNAFjtu1Dfv9bOz4MxI_-1" vertex="1">
          <mxGeometry x="-80" y="353" width="120" height="60" as="geometry" />
        </mxCell>
        <mxCell id="SNAFjtu1Dfv9bOz4MxI_-165" value="odrl:Party" style="whiteSpace=wrap;html=1;rounded=0;" parent="SNAFjtu1Dfv9bOz4MxI_-1" vertex="1">
          <mxGeometry x="-80" y="428" width="120" height="60" as="geometry" />
        </mxCell>
        <mxCell id="SNAFjtu1Dfv9bOz4MxI_-166" value="sc" style="edgeStyle=orthogonalEdgeStyle;rounded=0;orthogonalLoop=1;jettySize=auto;html=1;entryX=0.5;entryY=0;entryDx=0;entryDy=0;exitX=0.5;exitY=1;exitDx=0;exitDy=0;" parent="SNAFjtu1Dfv9bOz4MxI_-1" source="SNAFjtu1Dfv9bOz4MxI_-171" target="SNAFjtu1Dfv9bOz4MxI_-167" edge="1">
          <mxGeometry relative="1" as="geometry">
            <mxPoint x="1770" y="126" as="targetPoint" />
          </mxGeometry>
        </mxCell>
        <mxCell id="SNAFjtu1Dfv9bOz4MxI_-167" value="bono" style="rounded=0;whiteSpace=wrap;html=1;" parent="SNAFjtu1Dfv9bOz4MxI_-1" vertex="1">
          <mxGeometry x="1710" y="171" width="120" height="60" as="geometry" />
        </mxCell>
        <mxCell id="SNAFjtu1Dfv9bOz4MxI_-168" value="sc" style="edgeStyle=orthogonalEdgeStyle;rounded=0;orthogonalLoop=1;jettySize=auto;html=1;exitX=0.5;exitY=1;exitDx=0;exitDy=0;entryX=0.5;entryY=0;entryDx=0;entryDy=0;" parent="SNAFjtu1Dfv9bOz4MxI_-1" source="SNAFjtu1Dfv9bOz4MxI_-170" target="SNAFjtu1Dfv9bOz4MxI_-169" edge="1">
          <mxGeometry relative="1" as="geometry">
            <mxPoint x="1600" y="176" as="targetPoint" />
          </mxGeometry>
        </mxCell>
        <mxCell id="SNAFjtu1Dfv9bOz4MxI_-169" value="individual" style="rounded=0;whiteSpace=wrap;html=1;" parent="SNAFjtu1Dfv9bOz4MxI_-1" vertex="1">
          <mxGeometry x="1550" y="171" width="120" height="60" as="geometry" />
        </mxCell>
        <mxCell id="SNAFjtu1Dfv9bOz4MxI_-170" value="Alquiler pista de padel" style="rounded=0;whiteSpace=wrap;html=1;" parent="SNAFjtu1Dfv9bOz4MxI_-1" vertex="1">
          <mxGeometry x="1550" y="56" width="120" height="60" as="geometry" />
        </mxCell>
        <mxCell id="SNAFjtu1Dfv9bOz4MxI_-171" value="Bono 10 clases zumba" style="rounded=0;whiteSpace=wrap;html=1;" parent="SNAFjtu1Dfv9bOz4MxI_-1" vertex="1">
          <mxGeometry x="1710" y="56" width="120" height="60" as="geometry" />
        </mxCell>
        <mxCell id="SNAFjtu1Dfv9bOz4MxI_-174" value="org:Organization" style="rounded=0;whiteSpace=wrap;html=1;" parent="SNAFjtu1Dfv9bOz4MxI_-1" vertex="1">
          <mxGeometry x="1230" y="160" width="120" height="60" as="geometry" />
        </mxCell>
        <mxCell id="SNAFjtu1Dfv9bOz4MxI_-175" value="org:Role" style="rounded=0;whiteSpace=wrap;html=1;" parent="SNAFjtu1Dfv9bOz4MxI_-1" vertex="1">
          <mxGeometry x="657" y="299" width="120" height="60" as="geometry" />
        </mxCell>
        <mxCell id="SNAFjtu1Dfv9bOz4MxI_-176" value="vcard:Address" style="whiteSpace=wrap;html=1;rounded=0;" parent="SNAFjtu1Dfv9bOz4MxI_-1" vertex="1">
          <mxGeometry x="650" y="700" width="120" height="60" as="geometry" />
        </mxCell>
        <mxCell id="SNAFjtu1Dfv9bOz4MxI_-177" style="edgeStyle=orthogonalEdgeStyle;rounded=0;orthogonalLoop=1;jettySize=auto;html=1;entryX=0.5;entryY=1;entryDx=0;entryDy=0;" parent="SNAFjtu1Dfv9bOz4MxI_-1" source="SNAFjtu1Dfv9bOz4MxI_-179" target="SNAFjtu1Dfv9bOz4MxI_-70" edge="1">
          <mxGeometry relative="1" as="geometry" />
        </mxCell>
        <mxCell id="SNAFjtu1Dfv9bOz4MxI_-178" value="enseña" style="edgeLabel;html=1;align=center;verticalAlign=middle;resizable=0;points=[];" parent="SNAFjtu1Dfv9bOz4MxI_-177" vertex="1" connectable="0">
          <mxGeometry x="-0.2346" relative="1" as="geometry">
            <mxPoint as="offset" />
          </mxGeometry>
        </mxCell>
        <mxCell id="SNAFjtu1Dfv9bOz4MxI_-179" value="Entrenador" style="whiteSpace=wrap;html=1;rounded=0;dashed=1;" parent="SNAFjtu1Dfv9bOz4MxI_-1" vertex="1">
          <mxGeometry x="1065" y="1110" width="120" height="60" as="geometry" />
        </mxCell>
        <mxCell id="SNAFjtu1Dfv9bOz4MxI_-180" style="edgeStyle=orthogonalEdgeStyle;rounded=0;orthogonalLoop=1;jettySize=auto;html=1;entryX=0.5;entryY=1;entryDx=0;entryDy=0;exitX=0.5;exitY=0;exitDx=0;exitDy=0;" parent="SNAFjtu1Dfv9bOz4MxI_-1" source="SNAFjtu1Dfv9bOz4MxI_-184" target="SNAFjtu1Dfv9bOz4MxI_-151" edge="1">
          <mxGeometry relative="1" as="geometry">
            <Array as="points">
              <mxPoint x="950" y="100" />
              <mxPoint x="950" y="100" />
            </Array>
          </mxGeometry>
        </mxCell>
        <mxCell id="SNAFjtu1Dfv9bOz4MxI_-181" value="sc" style="edgeLabel;html=1;align=center;verticalAlign=middle;resizable=0;points=[];" parent="SNAFjtu1Dfv9bOz4MxI_-180" vertex="1" connectable="0">
          <mxGeometry x="0.199" y="-3" relative="1" as="geometry">
            <mxPoint x="-3" y="21" as="offset" />
          </mxGeometry>
        </mxCell>
        <mxCell id="SNAFjtu1Dfv9bOz4MxI_-182" style="edgeStyle=orthogonalEdgeStyle;rounded=0;orthogonalLoop=1;jettySize=auto;html=1;entryX=0.5;entryY=0;entryDx=0;entryDy=0;exitX=0.5;exitY=1;exitDx=0;exitDy=0;" parent="SNAFjtu1Dfv9bOz4MxI_-1" source="SNAFjtu1Dfv9bOz4MxI_-184" target="SNAFjtu1Dfv9bOz4MxI_-91" edge="1">
          <mxGeometry relative="1" as="geometry" />
        </mxCell>
        <mxCell id="SNAFjtu1Dfv9bOz4MxI_-183" value="org:member" style="edgeLabel;html=1;align=center;verticalAlign=middle;resizable=0;points=[];" parent="SNAFjtu1Dfv9bOz4MxI_-182" vertex="1" connectable="0">
          <mxGeometry x="-0.0639" y="-2" relative="1" as="geometry">
            <mxPoint as="offset" />
          </mxGeometry>
        </mxCell>
        <mxCell id="SNAFjtu1Dfv9bOz4MxI_-184" value="Limpiador" style="rounded=0;whiteSpace=wrap;html=1;" parent="SNAFjtu1Dfv9bOz4MxI_-1" vertex="1">
          <mxGeometry x="890" y="170" width="120" height="60" as="geometry" />
        </mxCell>
        <mxCell id="SNAFjtu1Dfv9bOz4MxI_-185" value="time:GeneralDate&lt;br&gt;TimeDescription" style="whiteSpace=wrap;html=1;rounded=0;" parent="SNAFjtu1Dfv9bOz4MxI_-1" vertex="1">
          <mxGeometry x="2050" y="330" width="120" height="60" as="geometry" />
        </mxCell>
        <mxCell id="SNAFjtu1Dfv9bOz4MxI_-186" value="geo:Point" style="swimlane;fontStyle=0;childLayout=stackLayout;horizontal=1;startSize=30;horizontalStack=0;resizeParent=1;resizeParentMax=0;resizeLast=0;collapsible=1;marginBottom=0;" parent="SNAFjtu1Dfv9bOz4MxI_-1" vertex="1">
          <mxGeometry x="550" y="600" width="140" height="70" as="geometry" />
        </mxCell>
        <mxCell id="SNAFjtu1Dfv9bOz4MxI_-187" value=" - geo:lat&#xa; - geo:long" style="text;strokeColor=none;fillColor=none;align=left;verticalAlign=middle;spacingLeft=4;spacingRight=4;overflow=hidden;points=[[0,0.5],[1,0.5]];portConstraint=eastwest;rotatable=0;" parent="SNAFjtu1Dfv9bOz4MxI_-186" vertex="1">
          <mxGeometry y="30" width="140" height="40" as="geometry" />
        </mxCell>
        <mxCell id="SNAFjtu1Dfv9bOz4MxI_-188" value="Instalación Deportiva" style="swimlane;fontStyle=0;childLayout=stackLayout;horizontal=1;startSize=30;horizontalStack=0;resizeParent=1;resizeParentMax=0;resizeLast=0;collapsible=1;marginBottom=0;" parent="SNAFjtu1Dfv9bOz4MxI_-1" vertex="1">
          <mxGeometry x="1080" y="590" width="140" height="90" as="geometry" />
        </mxCell>
        <mxCell id="SNAFjtu1Dfv9bOz4MxI_-189" value=" - Nombre&#xa; - Email&#xa; - Nº Teléfono" style="text;strokeColor=none;fillColor=none;align=left;verticalAlign=middle;spacingLeft=4;spacingRight=4;overflow=hidden;points=[[0,0.5],[1,0.5]];portConstraint=eastwest;rotatable=0;" parent="SNAFjtu1Dfv9bOz4MxI_-1" vertex="1">
          <mxGeometry x="1080" y="620" width="140" height="60" as="geometry" />
        </mxCell>
        <mxCell id="SNAFjtu1Dfv9bOz4MxI_-190" value="" style="endArrow=none;html=1;rounded=0;strokeColor=#000000;entryX=0.992;entryY=0.319;entryDx=0;entryDy=0;exitX=0;exitY=0.319;exitDx=0;exitDy=0;entryPerimeter=0;exitPerimeter=0;" parent="SNAFjtu1Dfv9bOz4MxI_-1" source="SNAFjtu1Dfv9bOz4MxI_-85" target="SNAFjtu1Dfv9bOz4MxI_-85" edge="1">
          <mxGeometry width="50" height="50" relative="1" as="geometry">
            <mxPoint x="1230" y="340" as="sourcePoint" />
            <mxPoint x="1280" y="290" as="targetPoint" />
          </mxGeometry>
        </mxCell>
        <mxCell id="SNAFjtu1Dfv9bOz4MxI_-191" value="" style="endArrow=none;html=1;rounded=0;strokeColor=#000000;entryX=0.995;entryY=0.32;entryDx=0;entryDy=0;exitX=0.002;exitY=0.331;exitDx=0;exitDy=0;exitPerimeter=0;entryPerimeter=0;" parent="SNAFjtu1Dfv9bOz4MxI_-1" source="SNAFjtu1Dfv9bOz4MxI_-98" target="SNAFjtu1Dfv9bOz4MxI_-98" edge="1">
          <mxGeometry width="50" height="50" relative="1" as="geometry">
            <mxPoint x="2180" y="350" as="sourcePoint" />
            <mxPoint x="2230" y="300" as="targetPoint" />
          </mxGeometry>
        </mxCell>
        <mxCell id="-j8fsfZdqUerxGIPOQ0L-0" value="Exhaustive disjoint" style="text;html=1;strokeColor=none;fillColor=none;align=left;verticalAlign=middle;whiteSpace=wrap;rounded=0;fontSize=11;" vertex="1" parent="SNAFjtu1Dfv9bOz4MxI_-1">
          <mxGeometry x="840" y="1018" width="60" height="30" as="geometry" />
        </mxCell>
        <mxCell id="-j8fsfZdqUerxGIPOQ0L-1" value="Exhaustive disjoint" style="text;html=1;strokeColor=none;fillColor=none;align=left;verticalAlign=middle;whiteSpace=wrap;rounded=0;fontSize=11;" vertex="1" parent="SNAFjtu1Dfv9bOz4MxI_-1">
          <mxGeometry x="1170" y="720" width="100" height="20" as="geometry" />
        </mxCell>
        <mxCell id="-j8fsfZdqUerxGIPOQ0L-2" value="Exhaustive disjoint" style="text;html=1;strokeColor=none;fillColor=none;align=left;verticalAlign=middle;whiteSpace=wrap;rounded=0;fontSize=11;" vertex="1" parent="SNAFjtu1Dfv9bOz4MxI_-1">
          <mxGeometry x="1200" y="856" width="100" height="20" as="geometry" />
        </mxCell>
        <mxCell id="-j8fsfZdqUerxGIPOQ0L-4" value="Exhaustive disjoint" style="text;html=1;strokeColor=none;fillColor=none;align=left;verticalAlign=middle;whiteSpace=wrap;rounded=0;fontSize=11;" vertex="1" parent="SNAFjtu1Dfv9bOz4MxI_-1">
          <mxGeometry x="640" y="1130" width="60" height="30" as="geometry" />
        </mxCell>
        <mxCell id="-j8fsfZdqUerxGIPOQ0L-5" value="Exhaustive disjoint" style="text;html=1;strokeColor=none;fillColor=none;align=left;verticalAlign=middle;whiteSpace=wrap;rounded=0;fontSize=11;" vertex="1" parent="SNAFjtu1Dfv9bOz4MxI_-1">
          <mxGeometry x="630" y="856" width="60" height="30" as="geometry" />
        </mxCell>
        <mxCell id="hNPWH6stR6tWxO1scKM1-0" value="Exhaustive disjoint" style="text;html=1;strokeColor=none;fillColor=none;align=left;verticalAlign=middle;whiteSpace=wrap;rounded=0;fontSize=11;" vertex="1" parent="SNAFjtu1Dfv9bOz4MxI_-1">
          <mxGeometry x="1570" y="258" width="100" height="20" as="geometry" />
        </mxCell>
      </root>
    </mxGraphModel>
  </diagram>
  <diagram name="tbox" id="naMiLAKqxrC1WnJnzUUQ">
    <mxGraphModel dx="1622" dy="777" grid="1" gridSize="10" guides="1" tooltips="1" connect="1" arrows="1" fold="1" page="1" pageScale="1" pageWidth="3300" pageHeight="4681" math="0" shadow="0">
      <root>
        <mxCell id="pSUh9IE3ZTvBWOhVUBry-0" />
        <mxCell id="pSUh9IE3ZTvBWOhVUBry-1" parent="pSUh9IE3ZTvBWOhVUBry-0" />
        <mxCell id="pSUh9IE3ZTvBWOhVUBry-2" value="" style="rounded=1;whiteSpace=wrap;html=1;fillColor=none;arcSize=8;strokeColor=#6c8ebf;strokeWidth=3;" vertex="1" parent="pSUh9IE3ZTvBWOhVUBry-1">
          <mxGeometry x="485" y="575" width="1095" height="645" as="geometry" />
        </mxCell>
        <mxCell id="pSUh9IE3ZTvBWOhVUBry-3" value="" style="rounded=0;whiteSpace=wrap;html=1;fillColor=none;strokeWidth=2;strokeColor=#000000;" vertex="1" parent="pSUh9IE3ZTvBWOhVUBry-1">
          <mxGeometry x="1040" y="882" width="290" height="80" as="geometry" />
        </mxCell>
        <mxCell id="pSUh9IE3ZTvBWOhVUBry-4" value="" style="rounded=0;whiteSpace=wrap;html=1;fillColor=none;strokeWidth=2;strokeColor=#000000;" vertex="1" parent="pSUh9IE3ZTvBWOhVUBry-1">
          <mxGeometry x="680" y="890" width="150" height="230" as="geometry" />
        </mxCell>
        <mxCell id="pSUh9IE3ZTvBWOhVUBry-5" value="" style="rounded=0;whiteSpace=wrap;html=1;fillColor=none;strokeWidth=2;strokeColor=#000000;" vertex="1" parent="pSUh9IE3ZTvBWOhVUBry-1">
          <mxGeometry x="510" y="1038" width="120" height="160" as="geometry" />
        </mxCell>
        <mxCell id="pSUh9IE3ZTvBWOhVUBry-9" value="" style="rounded=0;whiteSpace=wrap;html=1;fillColor=none;strokeWidth=2;strokeColor=#000000;" vertex="1" parent="pSUh9IE3ZTvBWOhVUBry-1">
          <mxGeometry x="845" y="745" width="590" height="100" as="geometry" />
        </mxCell>
        <mxCell id="pSUh9IE3ZTvBWOhVUBry-11" style="edgeStyle=orthogonalEdgeStyle;rounded=0;orthogonalLoop=1;jettySize=auto;html=1;exitX=-0.001;exitY=0.263;exitDx=0;exitDy=0;exitPerimeter=0;entryX=1.001;entryY=0.15;entryDx=0;entryDy=0;entryPerimeter=0;" edge="1" parent="pSUh9IE3ZTvBWOhVUBry-1" source="pSUh9IE3ZTvBWOhVUBry-149">
          <mxGeometry relative="1" as="geometry">
            <mxPoint x="1079.3200000000006" y="643.5799999999999" as="sourcePoint" />
            <mxPoint x="690.0200000000003" y="636" as="targetPoint" />
            <Array as="points">
              <mxPoint x="1076" y="636" />
            </Array>
          </mxGeometry>
        </mxCell>
        <mxCell id="pSUh9IE3ZTvBWOhVUBry-12" value="Se Geolocaliza en" style="edgeLabel;html=1;align=center;verticalAlign=middle;resizable=0;points=[];" vertex="1" connectable="0" parent="pSUh9IE3ZTvBWOhVUBry-11">
          <mxGeometry x="0.4071" y="3" relative="1" as="geometry">
            <mxPoint x="51" y="-3" as="offset" />
          </mxGeometry>
        </mxCell>
        <mxCell id="pSUh9IE3ZTvBWOhVUBry-13" value="" style="edgeStyle=orthogonalEdgeStyle;rounded=0;orthogonalLoop=1;jettySize=auto;html=1;exitX=0.002;exitY=0.834;exitDx=0;exitDy=0;exitPerimeter=0;" edge="1" parent="pSUh9IE3ZTvBWOhVUBry-1" source="pSUh9IE3ZTvBWOhVUBry-149" target="pSUh9IE3ZTvBWOhVUBry-136">
          <mxGeometry relative="1" as="geometry">
            <mxPoint x="1220" y="670" as="sourcePoint" />
            <Array as="points">
              <mxPoint x="730" y="670" />
            </Array>
          </mxGeometry>
        </mxCell>
        <mxCell id="pSUh9IE3ZTvBWOhVUBry-14" value="vacard:hasAddress" style="edgeLabel;html=1;align=center;verticalAlign=middle;resizable=0;points=[];" vertex="1" connectable="0" parent="pSUh9IE3ZTvBWOhVUBry-13">
          <mxGeometry x="0.6384" y="2" relative="1" as="geometry">
            <mxPoint x="111" y="-2" as="offset" />
          </mxGeometry>
        </mxCell>
        <mxCell id="pSUh9IE3ZTvBWOhVUBry-15" value="PoF" style="edgeStyle=orthogonalEdgeStyle;rounded=0;orthogonalLoop=1;jettySize=auto;html=1;entryX=0.431;entryY=1.011;entryDx=0;entryDy=0;entryPerimeter=0;exitX=0.5;exitY=0;exitDx=0;exitDy=0;" edge="1" parent="pSUh9IE3ZTvBWOhVUBry-1" source="pSUh9IE3ZTvBWOhVUBry-9" target="pSUh9IE3ZTvBWOhVUBry-149">
          <mxGeometry x="-0.544" relative="1" as="geometry">
            <mxPoint x="1140" y="710" as="targetPoint" />
            <mxPoint as="offset" />
            <mxPoint x="1140" y="740" as="sourcePoint" />
          </mxGeometry>
        </mxCell>
        <mxCell id="pSUh9IE3ZTvBWOhVUBry-16" value="Asociado a" style="edgeStyle=orthogonalEdgeStyle;rounded=0;orthogonalLoop=1;jettySize=auto;html=1;exitX=0;exitY=0.5;exitDx=0;exitDy=0;entryX=1;entryY=0.5;entryDx=0;entryDy=0;" edge="1" parent="pSUh9IE3ZTvBWOhVUBry-1" source="pSUh9IE3ZTvBWOhVUBry-17">
          <mxGeometry relative="1" as="geometry">
            <mxPoint x="1005" y="800" as="targetPoint" />
          </mxGeometry>
        </mxCell>
        <mxCell id="pSUh9IE3ZTvBWOhVUBry-17" value="Espacio complementario" style="rounded=0;whiteSpace=wrap;html=1;" vertex="1" parent="pSUh9IE3ZTvBWOhVUBry-1">
          <mxGeometry x="1125" y="770" width="120" height="60" as="geometry" />
        </mxCell>
        <mxCell id="pSUh9IE3ZTvBWOhVUBry-18" value="Espacio auxiliar" style="rounded=0;whiteSpace=wrap;html=1;" vertex="1" parent="pSUh9IE3ZTvBWOhVUBry-1">
          <mxGeometry x="1305" y="770" width="120" height="60" as="geometry" />
        </mxCell>
        <mxCell id="pSUh9IE3ZTvBWOhVUBry-32" value="Espacio Deportivo Convencional" style="rounded=0;whiteSpace=wrap;html=1;" vertex="1" parent="pSUh9IE3ZTvBWOhVUBry-1">
          <mxGeometry x="700" y="910" width="120" height="50" as="geometry" />
        </mxCell>
        <mxCell id="pSUh9IE3ZTvBWOhVUBry-33" style="edgeStyle=orthogonalEdgeStyle;rounded=0;orthogonalLoop=1;jettySize=auto;html=1;entryX=0.349;entryY=1.02;entryDx=0;entryDy=0;entryPerimeter=0;exitX=1;exitY=0.5;exitDx=0;exitDy=0;" edge="1" parent="pSUh9IE3ZTvBWOhVUBry-1" source="pSUh9IE3ZTvBWOhVUBry-4">
          <mxGeometry relative="1" as="geometry">
            <mxPoint x="908.6800000000004" y="830.0000000000002" as="targetPoint" />
            <mxPoint x="831.33" y="1004.2" as="sourcePoint" />
            <Array as="points">
              <mxPoint x="908" y="1005" />
              <mxPoint x="908" y="830" />
            </Array>
          </mxGeometry>
        </mxCell>
        <mxCell id="pSUh9IE3ZTvBWOhVUBry-34" value="sc" style="edgeLabel;html=1;align=center;verticalAlign=middle;resizable=0;points=[];" vertex="1" connectable="0" parent="pSUh9IE3ZTvBWOhVUBry-33">
          <mxGeometry x="-0.6175" y="1" relative="1" as="geometry">
            <mxPoint x="-8" y="1" as="offset" />
          </mxGeometry>
        </mxCell>
        <mxCell id="pSUh9IE3ZTvBWOhVUBry-35" value="Espacio Deportivo Singular" style="rounded=0;whiteSpace=wrap;html=1;" vertex="1" parent="pSUh9IE3ZTvBWOhVUBry-1">
          <mxGeometry x="700" y="980" width="120" height="50" as="geometry" />
        </mxCell>
        <mxCell id="pSUh9IE3ZTvBWOhVUBry-36" value="Área&amp;nbsp;de Actividad deportiva" style="rounded=0;whiteSpace=wrap;html=1;" vertex="1" parent="pSUh9IE3ZTvBWOhVUBry-1">
          <mxGeometry x="700" y="1060" width="120" height="50" as="geometry" />
        </mxCell>
        <mxCell id="pSUh9IE3ZTvBWOhVUBry-37" value="Espacio longitudinal" style="rounded=0;whiteSpace=wrap;html=1;" vertex="1" parent="pSUh9IE3ZTvBWOhVUBry-1">
          <mxGeometry x="520" y="796" width="90" height="40" as="geometry" />
        </mxCell>
        <mxCell id="pSUh9IE3ZTvBWOhVUBry-38" value="Pistas" style="rounded=0;whiteSpace=wrap;html=1;" vertex="1" parent="pSUh9IE3ZTvBWOhVUBry-1">
          <mxGeometry x="520" y="846" width="90" height="30" as="geometry" />
        </mxCell>
        <mxCell id="pSUh9IE3ZTvBWOhVUBry-39" value="Campos" style="rounded=0;whiteSpace=wrap;html=1;" vertex="1" parent="pSUh9IE3ZTvBWOhVUBry-1">
          <mxGeometry x="520" y="886" width="90" height="30" as="geometry" />
        </mxCell>
        <mxCell id="pSUh9IE3ZTvBWOhVUBry-40" value="Salas" style="rounded=0;whiteSpace=wrap;html=1;" vertex="1" parent="pSUh9IE3ZTvBWOhVUBry-1">
          <mxGeometry x="520" y="926" width="90" height="30" as="geometry" />
        </mxCell>
        <mxCell id="pSUh9IE3ZTvBWOhVUBry-41" value="sc" style="edgeStyle=orthogonalEdgeStyle;rounded=0;orthogonalLoop=1;jettySize=auto;html=1;exitX=1;exitY=0.5;exitDx=0;exitDy=0;" edge="1" parent="pSUh9IE3ZTvBWOhVUBry-1" source="pSUh9IE3ZTvBWOhVUBry-106" target="pSUh9IE3ZTvBWOhVUBry-32">
          <mxGeometry x="0.0789" relative="1" as="geometry">
            <mxPoint as="offset" />
          </mxGeometry>
        </mxCell>
        <mxCell id="pSUh9IE3ZTvBWOhVUBry-42" value="Vasos" style="rounded=0;whiteSpace=wrap;html=1;" vertex="1" parent="pSUh9IE3ZTvBWOhVUBry-1">
          <mxGeometry x="520" y="966" width="90" height="30" as="geometry" />
        </mxCell>
        <mxCell id="pSUh9IE3ZTvBWOhVUBry-43" value="Área&amp;nbsp;Acuatica" style="rounded=0;whiteSpace=wrap;html=1;" vertex="1" parent="pSUh9IE3ZTvBWOhVUBry-1">
          <mxGeometry x="520" y="1048" width="100" height="40" as="geometry" />
        </mxCell>
        <mxCell id="pSUh9IE3ZTvBWOhVUBry-44" style="edgeStyle=orthogonalEdgeStyle;rounded=0;orthogonalLoop=1;jettySize=auto;html=1;exitX=1;exitY=0.5;exitDx=0;exitDy=0;" edge="1" parent="pSUh9IE3ZTvBWOhVUBry-1" source="pSUh9IE3ZTvBWOhVUBry-5" target="pSUh9IE3ZTvBWOhVUBry-36">
          <mxGeometry relative="1" as="geometry" />
        </mxCell>
        <mxCell id="pSUh9IE3ZTvBWOhVUBry-45" value="sc" style="edgeLabel;html=1;align=center;verticalAlign=middle;resizable=0;points=[];" vertex="1" connectable="0" parent="pSUh9IE3ZTvBWOhVUBry-44">
          <mxGeometry x="0.2667" y="-1" relative="1" as="geometry">
            <mxPoint y="10" as="offset" />
          </mxGeometry>
        </mxCell>
        <mxCell id="pSUh9IE3ZTvBWOhVUBry-46" value="Área terrestre" style="rounded=0;whiteSpace=wrap;html=1;" vertex="1" parent="pSUh9IE3ZTvBWOhVUBry-1">
          <mxGeometry x="520" y="1098" width="100" height="40" as="geometry" />
        </mxCell>
        <mxCell id="pSUh9IE3ZTvBWOhVUBry-47" value="Área&amp;nbsp;Aerea" style="rounded=0;whiteSpace=wrap;html=1;" vertex="1" parent="pSUh9IE3ZTvBWOhVUBry-1">
          <mxGeometry x="520" y="1148" width="100" height="40" as="geometry" />
        </mxCell>
        <mxCell id="pSUh9IE3ZTvBWOhVUBry-48" value="Espacio Deportivo" style="swimlane;fontStyle=0;childLayout=stackLayout;horizontal=1;startSize=30;horizontalStack=0;resizeParent=1;resizeParentMax=0;resizeLast=0;collapsible=1;marginBottom=0;" vertex="1" parent="pSUh9IE3ZTvBWOhVUBry-1">
          <mxGeometry x="855" y="760" width="150" height="70" as="geometry" />
        </mxCell>
        <mxCell id="pSUh9IE3ZTvBWOhVUBry-49" value="- Espacio Abierto/Cerrado" style="text;strokeColor=none;fillColor=none;align=left;verticalAlign=middle;spacingLeft=4;spacingRight=4;overflow=hidden;points=[[0,0.5],[1,0.5]];portConstraint=eastwest;rotatable=0;" vertex="1" parent="pSUh9IE3ZTvBWOhVUBry-48">
          <mxGeometry y="30" width="150" height="40" as="geometry" />
        </mxCell>
        <mxCell id="pSUh9IE3ZTvBWOhVUBry-50" value="sc" style="edgeStyle=orthogonalEdgeStyle;rounded=0;orthogonalLoop=1;jettySize=auto;html=1;exitX=0.5;exitY=0;exitDx=0;exitDy=0;entryX=0.5;entryY=1;entryDx=0;entryDy=0;" edge="1" parent="pSUh9IE3ZTvBWOhVUBry-1" source="pSUh9IE3ZTvBWOhVUBry-3" target="pSUh9IE3ZTvBWOhVUBry-17">
          <mxGeometry x="-0.1698" relative="1" as="geometry">
            <mxPoint as="offset" />
          </mxGeometry>
        </mxCell>
        <mxCell id="pSUh9IE3ZTvBWOhVUBry-51" value="Espacio complementario general" style="rounded=0;whiteSpace=wrap;html=1;" vertex="1" parent="pSUh9IE3ZTvBWOhVUBry-1">
          <mxGeometry x="1060" y="892" width="120" height="60" as="geometry" />
        </mxCell>
        <mxCell id="pSUh9IE3ZTvBWOhVUBry-52" value="Espacio complementario especifico" style="rounded=0;whiteSpace=wrap;html=1;" vertex="1" parent="pSUh9IE3ZTvBWOhVUBry-1">
          <mxGeometry x="1200" y="892" width="120" height="60" as="geometry" />
        </mxCell>
        <mxCell id="pSUh9IE3ZTvBWOhVUBry-53" style="edgeStyle=orthogonalEdgeStyle;rounded=0;orthogonalLoop=1;jettySize=auto;html=1;exitX=0;exitY=0.5;exitDx=0;exitDy=0;entryX=0.576;entryY=1.04;entryDx=0;entryDy=0;entryPerimeter=0;" edge="1" parent="pSUh9IE3ZTvBWOhVUBry-1" target="pSUh9IE3ZTvBWOhVUBry-49">
          <mxGeometry relative="1" as="geometry">
            <Array as="points">
              <mxPoint x="941" y="1020" />
              <mxPoint x="941" y="832" />
            </Array>
            <mxPoint x="1077.35" y="1020.34" as="sourcePoint" />
            <mxPoint x="920.0000000000006" y="829.6600000000007" as="targetPoint" />
          </mxGeometry>
        </mxCell>
        <mxCell id="pSUh9IE3ZTvBWOhVUBry-54" value="Se realiza en" style="edgeLabel;html=1;align=center;verticalAlign=middle;resizable=0;points=[];" vertex="1" connectable="0" parent="pSUh9IE3ZTvBWOhVUBry-53">
          <mxGeometry x="-0.2788" y="6" relative="1" as="geometry">
            <mxPoint x="28" y="-6" as="offset" />
          </mxGeometry>
        </mxCell>
        <mxCell id="pSUh9IE3ZTvBWOhVUBry-55" value="Deporte" style="rounded=0;whiteSpace=wrap;html=1;" vertex="1" parent="pSUh9IE3ZTvBWOhVUBry-1">
          <mxGeometry x="1065" y="995" width="120" height="50" as="geometry" />
        </mxCell>
        <mxCell id="pSUh9IE3ZTvBWOhVUBry-58" style="edgeStyle=orthogonalEdgeStyle;rounded=0;orthogonalLoop=1;jettySize=auto;html=1;" edge="1" parent="pSUh9IE3ZTvBWOhVUBry-1" source="pSUh9IE3ZTvBWOhVUBry-62" target="pSUh9IE3ZTvBWOhVUBry-112">
          <mxGeometry relative="1" as="geometry" />
        </mxCell>
        <mxCell id="pSUh9IE3ZTvBWOhVUBry-59" value="sc" style="edgeLabel;html=1;align=center;verticalAlign=middle;resizable=0;points=[];" vertex="1" connectable="0" parent="pSUh9IE3ZTvBWOhVUBry-58">
          <mxGeometry x="0.132" y="3" relative="1" as="geometry">
            <mxPoint x="-3" y="-4" as="offset" />
          </mxGeometry>
        </mxCell>
        <mxCell id="pSUh9IE3ZTvBWOhVUBry-60" style="edgeStyle=orthogonalEdgeStyle;rounded=0;orthogonalLoop=1;jettySize=auto;html=1;entryX=1;entryY=0.5;entryDx=0;entryDy=0;exitX=0;exitY=0.5;exitDx=0;exitDy=0;" edge="1" parent="pSUh9IE3ZTvBWOhVUBry-1" source="pSUh9IE3ZTvBWOhVUBry-62" target="pSUh9IE3ZTvBWOhVUBry-55">
          <mxGeometry relative="1" as="geometry">
            <Array as="points">
              <mxPoint x="1185" y="1020" />
            </Array>
          </mxGeometry>
        </mxCell>
        <mxCell id="pSUh9IE3ZTvBWOhVUBry-61" value="practica" style="edgeLabel;html=1;align=center;verticalAlign=middle;resizable=0;points=[];" vertex="1" connectable="0" parent="pSUh9IE3ZTvBWOhVUBry-60">
          <mxGeometry x="-0.5748" y="1" relative="1" as="geometry">
            <mxPoint x="-41" as="offset" />
          </mxGeometry>
        </mxCell>
        <mxCell id="pSUh9IE3ZTvBWOhVUBry-62" value="Cliente" style="rounded=0;whiteSpace=wrap;html=1;" vertex="1" parent="pSUh9IE3ZTvBWOhVUBry-1">
          <mxGeometry x="1430" y="990" width="120" height="60" as="geometry" />
        </mxCell>
        <mxCell id="pSUh9IE3ZTvBWOhVUBry-63" style="edgeStyle=orthogonalEdgeStyle;rounded=0;orthogonalLoop=1;jettySize=auto;html=1;exitX=0;exitY=0.5;exitDx=0;exitDy=0;entryX=1;entryY=0.5;entryDx=0;entryDy=0;" edge="1" parent="pSUh9IE3ZTvBWOhVUBry-1" source="pSUh9IE3ZTvBWOhVUBry-70" target="pSUh9IE3ZTvBWOhVUBry-149">
          <mxGeometry relative="1" as="geometry" />
        </mxCell>
        <mxCell id="pSUh9IE3ZTvBWOhVUBry-64" value="gestiona" style="edgeLabel;html=1;align=center;verticalAlign=middle;resizable=0;points=[];" vertex="1" connectable="0" parent="pSUh9IE3ZTvBWOhVUBry-63">
          <mxGeometry x="-0.298" y="1" relative="1" as="geometry">
            <mxPoint x="-8" y="-2" as="offset" />
          </mxGeometry>
        </mxCell>
        <mxCell id="pSUh9IE3ZTvBWOhVUBry-70" value="&lt;div style=&quot;text-align: center;&quot;&gt;&lt;span style=&quot;background-color: initial;&quot;&gt;&amp;nbsp; &amp;nbsp; &amp;nbsp; Organización&lt;/span&gt;&lt;/div&gt;&lt;span style=&quot;&quot;&gt;&lt;br&gt;&amp;nbsp; - Nombre&lt;/span&gt;&lt;br style=&quot;padding: 0px; margin: 0px;&quot;&gt;&lt;span style=&quot;&quot;&gt;&amp;nbsp; - Email&lt;/span&gt;&lt;br style=&quot;padding: 0px; margin: 0px;&quot;&gt;&lt;span style=&quot;&quot;&gt;&amp;nbsp; - Nº Teléfono&lt;/span&gt;" style="rounded=0;whiteSpace=wrap;html=1;align=left;" vertex="1" parent="pSUh9IE3ZTvBWOhVUBry-1">
          <mxGeometry x="1377" y="609" width="120" height="80" as="geometry" />
        </mxCell>
        <mxCell id="pSUh9IE3ZTvBWOhVUBry-84" value="T-Box" style="text;html=1;strokeColor=#6c8ebf;fillColor=#dae8fc;align=center;verticalAlign=middle;whiteSpace=wrap;rounded=0;labelBackgroundColor=none;strokeWidth=3;" vertex="1" parent="pSUh9IE3ZTvBWOhVUBry-1">
          <mxGeometry x="950" y="1190" width="60" height="30" as="geometry" />
        </mxCell>
        <mxCell id="pSUh9IE3ZTvBWOhVUBry-106" value="" style="rounded=0;whiteSpace=wrap;html=1;fillColor=none;strokeWidth=2;strokeColor=#000000;" vertex="1" parent="pSUh9IE3ZTvBWOhVUBry-1">
          <mxGeometry x="505" y="786" width="120" height="220" as="geometry" />
        </mxCell>
        <mxCell id="pSUh9IE3ZTvBWOhVUBry-112" value="foaf: Person" style="rounded=0;whiteSpace=wrap;html=1;" vertex="1" parent="pSUh9IE3ZTvBWOhVUBry-1">
          <mxGeometry x="1430" y="1110" width="120" height="60" as="geometry" />
        </mxCell>
        <mxCell id="pSUh9IE3ZTvBWOhVUBry-136" value="vcard:Address" style="whiteSpace=wrap;html=1;rounded=0;" vertex="1" parent="pSUh9IE3ZTvBWOhVUBry-1">
          <mxGeometry x="650" y="700" width="120" height="60" as="geometry" />
        </mxCell>
        <mxCell id="pSUh9IE3ZTvBWOhVUBry-137" style="edgeStyle=orthogonalEdgeStyle;rounded=0;orthogonalLoop=1;jettySize=auto;html=1;entryX=0.5;entryY=1;entryDx=0;entryDy=0;" edge="1" parent="pSUh9IE3ZTvBWOhVUBry-1" source="pSUh9IE3ZTvBWOhVUBry-139" target="pSUh9IE3ZTvBWOhVUBry-55">
          <mxGeometry relative="1" as="geometry" />
        </mxCell>
        <mxCell id="pSUh9IE3ZTvBWOhVUBry-138" value="enseña" style="edgeLabel;html=1;align=center;verticalAlign=middle;resizable=0;points=[];" vertex="1" connectable="0" parent="pSUh9IE3ZTvBWOhVUBry-137">
          <mxGeometry x="-0.2346" relative="1" as="geometry">
            <mxPoint as="offset" />
          </mxGeometry>
        </mxCell>
        <mxCell id="pSUh9IE3ZTvBWOhVUBry-139" value="Entrenador" style="whiteSpace=wrap;html=1;rounded=0;dashed=1;" vertex="1" parent="pSUh9IE3ZTvBWOhVUBry-1">
          <mxGeometry x="1065" y="1110" width="120" height="60" as="geometry" />
        </mxCell>
        <mxCell id="pSUh9IE3ZTvBWOhVUBry-146" value="geo:Point" style="swimlane;fontStyle=0;childLayout=stackLayout;horizontal=1;startSize=30;horizontalStack=0;resizeParent=1;resizeParentMax=0;resizeLast=0;collapsible=1;marginBottom=0;" vertex="1" parent="pSUh9IE3ZTvBWOhVUBry-1">
          <mxGeometry x="550" y="600" width="140" height="70" as="geometry" />
        </mxCell>
        <mxCell id="pSUh9IE3ZTvBWOhVUBry-147" value=" - geo:lat&#xa; - geo:long" style="text;strokeColor=none;fillColor=none;align=left;verticalAlign=middle;spacingLeft=4;spacingRight=4;overflow=hidden;points=[[0,0.5],[1,0.5]];portConstraint=eastwest;rotatable=0;" vertex="1" parent="pSUh9IE3ZTvBWOhVUBry-146">
          <mxGeometry y="30" width="140" height="40" as="geometry" />
        </mxCell>
        <mxCell id="pSUh9IE3ZTvBWOhVUBry-148" value="Instalación Deportiva" style="swimlane;fontStyle=0;childLayout=stackLayout;horizontal=1;startSize=30;horizontalStack=0;resizeParent=1;resizeParentMax=0;resizeLast=0;collapsible=1;marginBottom=0;" vertex="1" parent="pSUh9IE3ZTvBWOhVUBry-1">
          <mxGeometry x="1080" y="590" width="140" height="90" as="geometry" />
        </mxCell>
        <mxCell id="pSUh9IE3ZTvBWOhVUBry-149" value=" - Nombre&#xa; - Email&#xa; - Nº Teléfono" style="text;strokeColor=none;fillColor=none;align=left;verticalAlign=middle;spacingLeft=4;spacingRight=4;overflow=hidden;points=[[0,0.5],[1,0.5]];portConstraint=eastwest;rotatable=0;" vertex="1" parent="pSUh9IE3ZTvBWOhVUBry-1">
          <mxGeometry x="1080" y="620" width="140" height="60" as="geometry" />
        </mxCell>
        <mxCell id="pSUh9IE3ZTvBWOhVUBry-150" value="" style="endArrow=none;html=1;rounded=0;strokeColor=#000000;entryX=0.992;entryY=0.319;entryDx=0;entryDy=0;exitX=0;exitY=0.319;exitDx=0;exitDy=0;entryPerimeter=0;exitPerimeter=0;" edge="1" parent="pSUh9IE3ZTvBWOhVUBry-1" source="pSUh9IE3ZTvBWOhVUBry-70" target="pSUh9IE3ZTvBWOhVUBry-70">
          <mxGeometry width="50" height="50" relative="1" as="geometry">
            <mxPoint x="1377" y="629" as="sourcePoint" />
            <mxPoint x="1427" y="579" as="targetPoint" />
          </mxGeometry>
        </mxCell>
        <mxCell id="pSUh9IE3ZTvBWOhVUBry-152" value="Exhaustive disjoint" style="text;html=1;strokeColor=none;fillColor=none;align=left;verticalAlign=middle;whiteSpace=wrap;rounded=0;fontSize=11;" vertex="1" parent="pSUh9IE3ZTvBWOhVUBry-1">
          <mxGeometry x="840" y="1018" width="60" height="30" as="geometry" />
        </mxCell>
        <mxCell id="pSUh9IE3ZTvBWOhVUBry-153" value="Exhaustive disjoint" style="text;html=1;strokeColor=none;fillColor=none;align=left;verticalAlign=middle;whiteSpace=wrap;rounded=0;fontSize=11;" vertex="1" parent="pSUh9IE3ZTvBWOhVUBry-1">
          <mxGeometry x="1170" y="720" width="100" height="20" as="geometry" />
        </mxCell>
        <mxCell id="pSUh9IE3ZTvBWOhVUBry-154" value="Exhaustive disjoint" style="text;html=1;strokeColor=none;fillColor=none;align=left;verticalAlign=middle;whiteSpace=wrap;rounded=0;fontSize=11;" vertex="1" parent="pSUh9IE3ZTvBWOhVUBry-1">
          <mxGeometry x="1200" y="856" width="100" height="20" as="geometry" />
        </mxCell>
        <mxCell id="pSUh9IE3ZTvBWOhVUBry-155" value="Exhaustive disjoint" style="text;html=1;strokeColor=none;fillColor=none;align=left;verticalAlign=middle;whiteSpace=wrap;rounded=0;fontSize=11;" vertex="1" parent="pSUh9IE3ZTvBWOhVUBry-1">
          <mxGeometry x="640" y="1130" width="60" height="30" as="geometry" />
        </mxCell>
        <mxCell id="pSUh9IE3ZTvBWOhVUBry-156" value="Exhaustive disjoint" style="text;html=1;strokeColor=none;fillColor=none;align=left;verticalAlign=middle;whiteSpace=wrap;rounded=0;fontSize=11;" vertex="1" parent="pSUh9IE3ZTvBWOhVUBry-1">
          <mxGeometry x="630" y="856" width="60" height="30" as="geometry" />
        </mxCell>
      </root>
    </mxGraphModel>
  </diagram>
  <diagram name="service" id="4sPghUJK3hD5J_Q4GqcS">
    <mxGraphModel dx="1707" dy="818" grid="1" gridSize="10" guides="1" tooltips="1" connect="1" arrows="1" fold="1" page="1" pageScale="1" pageWidth="3300" pageHeight="4681" math="0" shadow="0">
      <root>
        <mxCell id="xyxEFOUmgN-_FiiLnlNH-0" />
        <mxCell id="xyxEFOUmgN-_FiiLnlNH-1" parent="xyxEFOUmgN-_FiiLnlNH-0" />
        <mxCell id="xyxEFOUmgN-_FiiLnlNH-7" value="" style="rounded=1;whiteSpace=wrap;html=1;labelBackgroundColor=none;strokeWidth=3;fillColor=none;strokeColor=#82b366;" vertex="1" parent="xyxEFOUmgN-_FiiLnlNH-1">
          <mxGeometry x="1210" y="300" width="1120" height="250" as="geometry" />
        </mxCell>
        <mxCell id="xyxEFOUmgN-_FiiLnlNH-8" value="" style="rounded=0;whiteSpace=wrap;html=1;fillColor=none;strokeWidth=2;strokeColor=#000000;" vertex="1" parent="xyxEFOUmgN-_FiiLnlNH-1">
          <mxGeometry x="1530" y="156" width="320" height="95" as="geometry" />
        </mxCell>
        <mxCell id="xyxEFOUmgN-_FiiLnlNH-19" value="" style="edgeStyle=orthogonalEdgeStyle;rounded=0;orthogonalLoop=1;jettySize=auto;html=1;" edge="1" parent="xyxEFOUmgN-_FiiLnlNH-1" source="xyxEFOUmgN-_FiiLnlNH-31" target="xyxEFOUmgN-_FiiLnlNH-79">
          <mxGeometry relative="1" as="geometry" />
        </mxCell>
        <mxCell id="xyxEFOUmgN-_FiiLnlNH-20" value="hasService" style="edgeLabel;html=1;align=center;verticalAlign=middle;resizable=0;points=[];" vertex="1" connectable="0" parent="xyxEFOUmgN-_FiiLnlNH-19">
          <mxGeometry x="0.0188" y="-3" relative="1" as="geometry">
            <mxPoint x="13" y="-33" as="offset" />
          </mxGeometry>
        </mxCell>
        <mxCell id="xyxEFOUmgN-_FiiLnlNH-21" value="" style="edgeStyle=orthogonalEdgeStyle;rounded=0;orthogonalLoop=1;jettySize=auto;html=1;" edge="1" parent="xyxEFOUmgN-_FiiLnlNH-1" source="xyxEFOUmgN-_FiiLnlNH-31" target="xyxEFOUmgN-_FiiLnlNH-80">
          <mxGeometry relative="1" as="geometry" />
        </mxCell>
        <mxCell id="xyxEFOUmgN-_FiiLnlNH-22" value="isOfferedInPlace" style="edgeLabel;html=1;align=center;verticalAlign=middle;resizable=0;points=[];" vertex="1" connectable="0" parent="xyxEFOUmgN-_FiiLnlNH-21">
          <mxGeometry x="0.5201" y="1" relative="1" as="geometry">
            <mxPoint x="1" y="-11" as="offset" />
          </mxGeometry>
        </mxCell>
        <mxCell id="xyxEFOUmgN-_FiiLnlNH-23" value="" style="edgeStyle=orthogonalEdgeStyle;rounded=0;orthogonalLoop=1;jettySize=auto;html=1;" edge="1" parent="xyxEFOUmgN-_FiiLnlNH-1" source="xyxEFOUmgN-_FiiLnlNH-31" target="xyxEFOUmgN-_FiiLnlNH-81">
          <mxGeometry relative="1" as="geometry" />
        </mxCell>
        <mxCell id="xyxEFOUmgN-_FiiLnlNH-24" value="hasTemporalDuration" style="edgeLabel;html=1;align=center;verticalAlign=middle;resizable=0;points=[];" vertex="1" connectable="0" parent="xyxEFOUmgN-_FiiLnlNH-23">
          <mxGeometry x="0.6822" relative="1" as="geometry">
            <mxPoint y="-5" as="offset" />
          </mxGeometry>
        </mxCell>
        <mxCell id="xyxEFOUmgN-_FiiLnlNH-25" value="" style="edgeStyle=orthogonalEdgeStyle;rounded=0;orthogonalLoop=1;jettySize=auto;html=1;" edge="1" parent="xyxEFOUmgN-_FiiLnlNH-1" source="xyxEFOUmgN-_FiiLnlNH-31" target="xyxEFOUmgN-_FiiLnlNH-82">
          <mxGeometry relative="1" as="geometry" />
        </mxCell>
        <mxCell id="xyxEFOUmgN-_FiiLnlNH-26" value="isOfferedWithCosts" style="edgeLabel;html=1;align=center;verticalAlign=middle;resizable=0;points=[];" vertex="1" connectable="0" parent="xyxEFOUmgN-_FiiLnlNH-25">
          <mxGeometry x="0.7602" y="-1" relative="1" as="geometry">
            <mxPoint x="-1" y="-21" as="offset" />
          </mxGeometry>
        </mxCell>
        <mxCell id="xyxEFOUmgN-_FiiLnlNH-27" value="" style="edgeStyle=orthogonalEdgeStyle;rounded=0;orthogonalLoop=1;jettySize=auto;html=1;" edge="1" parent="xyxEFOUmgN-_FiiLnlNH-1" source="xyxEFOUmgN-_FiiLnlNH-31" target="xyxEFOUmgN-_FiiLnlNH-83">
          <mxGeometry relative="1" as="geometry" />
        </mxCell>
        <mxCell id="xyxEFOUmgN-_FiiLnlNH-28" value="isOfferedByTeacher" style="edgeLabel;html=1;align=center;verticalAlign=middle;resizable=0;points=[];" vertex="1" connectable="0" parent="xyxEFOUmgN-_FiiLnlNH-27">
          <mxGeometry x="0.6577" y="2" relative="1" as="geometry">
            <mxPoint as="offset" />
          </mxGeometry>
        </mxCell>
        <mxCell id="xyxEFOUmgN-_FiiLnlNH-29" style="edgeStyle=orthogonalEdgeStyle;rounded=0;orthogonalLoop=1;jettySize=auto;html=1;entryX=0.5;entryY=1;entryDx=0;entryDy=0;strokeColor=#000000;" edge="1" parent="xyxEFOUmgN-_FiiLnlNH-1" source="xyxEFOUmgN-_FiiLnlNH-31" target="xyxEFOUmgN-_FiiLnlNH-145">
          <mxGeometry relative="1" as="geometry" />
        </mxCell>
        <mxCell id="xyxEFOUmgN-_FiiLnlNH-30" value="hasDateTimeDescriptions" style="edgeLabel;html=1;align=center;verticalAlign=middle;resizable=0;points=[];" vertex="1" connectable="0" parent="xyxEFOUmgN-_FiiLnlNH-29">
          <mxGeometry x="0.7694" y="1" relative="1" as="geometry">
            <mxPoint as="offset" />
          </mxGeometry>
        </mxCell>
        <mxCell id="xyxEFOUmgN-_FiiLnlNH-31" value="ServicioOfrecido" style="rounded=0;whiteSpace=wrap;html=1;" vertex="1" parent="xyxEFOUmgN-_FiiLnlNH-1">
          <mxGeometry x="1430" y="470" width="120" height="60" as="geometry" />
        </mxCell>
        <mxCell id="xyxEFOUmgN-_FiiLnlNH-56" style="edgeStyle=orthogonalEdgeStyle;rounded=0;orthogonalLoop=1;jettySize=auto;html=1;exitX=0.5;exitY=0;exitDx=0;exitDy=0;entryX=0.5;entryY=1;entryDx=0;entryDy=0;" edge="1" parent="xyxEFOUmgN-_FiiLnlNH-1" source="xyxEFOUmgN-_FiiLnlNH-62" target="xyxEFOUmgN-_FiiLnlNH-31">
          <mxGeometry relative="1" as="geometry" />
        </mxCell>
        <mxCell id="xyxEFOUmgN-_FiiLnlNH-57" value="consumes" style="edgeLabel;html=1;align=center;verticalAlign=middle;resizable=0;points=[];" vertex="1" connectable="0" parent="xyxEFOUmgN-_FiiLnlNH-56">
          <mxGeometry x="-0.4882" relative="1" as="geometry">
            <mxPoint y="-10" as="offset" />
          </mxGeometry>
        </mxCell>
        <mxCell id="xyxEFOUmgN-_FiiLnlNH-58" style="edgeStyle=orthogonalEdgeStyle;rounded=0;orthogonalLoop=1;jettySize=auto;html=1;" edge="1" parent="xyxEFOUmgN-_FiiLnlNH-1" source="xyxEFOUmgN-_FiiLnlNH-62" target="xyxEFOUmgN-_FiiLnlNH-112">
          <mxGeometry relative="1" as="geometry" />
        </mxCell>
        <mxCell id="xyxEFOUmgN-_FiiLnlNH-59" value="sc" style="edgeLabel;html=1;align=center;verticalAlign=middle;resizable=0;points=[];" vertex="1" connectable="0" parent="xyxEFOUmgN-_FiiLnlNH-58">
          <mxGeometry x="0.132" y="3" relative="1" as="geometry">
            <mxPoint x="-3" y="-4" as="offset" />
          </mxGeometry>
        </mxCell>
        <mxCell id="xyxEFOUmgN-_FiiLnlNH-62" value="Cliente" style="rounded=0;whiteSpace=wrap;html=1;" vertex="1" parent="xyxEFOUmgN-_FiiLnlNH-1">
          <mxGeometry x="1430" y="610" width="120" height="60" as="geometry" />
        </mxCell>
        <mxCell id="xyxEFOUmgN-_FiiLnlNH-63" style="edgeStyle=orthogonalEdgeStyle;rounded=0;orthogonalLoop=1;jettySize=auto;html=1;exitX=0.5;exitY=1;exitDx=0;exitDy=0;entryX=0.5;entryY=0;entryDx=0;entryDy=0;" edge="1" parent="xyxEFOUmgN-_FiiLnlNH-1" source="xyxEFOUmgN-_FiiLnlNH-70" target="xyxEFOUmgN-_FiiLnlNH-148">
          <mxGeometry relative="1" as="geometry" />
        </mxCell>
        <mxCell id="xyxEFOUmgN-_FiiLnlNH-64" value="gestiona" style="edgeLabel;html=1;align=center;verticalAlign=middle;resizable=0;points=[];" vertex="1" connectable="0" parent="xyxEFOUmgN-_FiiLnlNH-63">
          <mxGeometry x="-0.298" y="1" relative="1" as="geometry">
            <mxPoint as="offset" />
          </mxGeometry>
        </mxCell>
        <mxCell id="xyxEFOUmgN-_FiiLnlNH-65" style="edgeStyle=orthogonalEdgeStyle;rounded=0;orthogonalLoop=1;jettySize=auto;html=1;exitX=1;exitY=0.5;exitDx=0;exitDy=0;" edge="1" parent="xyxEFOUmgN-_FiiLnlNH-1" source="xyxEFOUmgN-_FiiLnlNH-70">
          <mxGeometry relative="1" as="geometry">
            <mxPoint x="1490" y="470" as="targetPoint" />
            <Array as="points">
              <mxPoint x="1490" y="360" />
              <mxPoint x="1490" y="470" />
            </Array>
          </mxGeometry>
        </mxCell>
        <mxCell id="xyxEFOUmgN-_FiiLnlNH-66" value="Offers" style="edgeLabel;html=1;align=center;verticalAlign=middle;resizable=0;points=[];" vertex="1" connectable="0" parent="xyxEFOUmgN-_FiiLnlNH-65">
          <mxGeometry x="0.1533" y="-1" relative="1" as="geometry">
            <mxPoint x="20" y="29" as="offset" />
          </mxGeometry>
        </mxCell>
        <mxCell id="xyxEFOUmgN-_FiiLnlNH-70" value="&lt;div style=&quot;text-align: center;&quot;&gt;&lt;span style=&quot;background-color: initial;&quot;&gt;&amp;nbsp; &amp;nbsp; &amp;nbsp; Organización&lt;/span&gt;&lt;/div&gt;&lt;span style=&quot;&quot;&gt;&lt;br&gt;&amp;nbsp; - Nombre&lt;/span&gt;&lt;br style=&quot;padding: 0px; margin: 0px;&quot;&gt;&lt;span style=&quot;&quot;&gt;&amp;nbsp; - Email&lt;/span&gt;&lt;br style=&quot;padding: 0px; margin: 0px;&quot;&gt;&lt;span style=&quot;&quot;&gt;&amp;nbsp; - Nº Teléfono&lt;/span&gt;" style="rounded=0;whiteSpace=wrap;html=1;align=left;" vertex="1" parent="xyxEFOUmgN-_FiiLnlNH-1">
          <mxGeometry x="1230" y="320" width="120" height="80" as="geometry" />
        </mxCell>
        <mxCell id="xyxEFOUmgN-_FiiLnlNH-77" value="Pattern 3: Service offered" style="text;html=1;strokeColor=#82b366;fillColor=#d5e8d4;align=center;verticalAlign=middle;whiteSpace=wrap;rounded=0;strokeWidth=3;" vertex="1" parent="xyxEFOUmgN-_FiiLnlNH-1">
          <mxGeometry x="2110" y="520" width="140" height="30" as="geometry" />
        </mxCell>
        <mxCell id="xyxEFOUmgN-_FiiLnlNH-78" value="sc" style="edgeStyle=orthogonalEdgeStyle;rounded=0;orthogonalLoop=1;jettySize=auto;html=1;entryX=0.5;entryY=0;entryDx=0;entryDy=0;exitX=0.5;exitY=1;exitDx=0;exitDy=0;" edge="1" parent="xyxEFOUmgN-_FiiLnlNH-1" source="xyxEFOUmgN-_FiiLnlNH-8" target="xyxEFOUmgN-_FiiLnlNH-79">
          <mxGeometry x="-0.519" relative="1" as="geometry">
            <mxPoint x="1920" y="190" as="targetPoint" />
            <Array as="points">
              <mxPoint x="1690" y="290" />
              <mxPoint x="1690" y="290" />
            </Array>
            <mxPoint x="1740" y="230" as="sourcePoint" />
            <mxPoint as="offset" />
          </mxGeometry>
        </mxCell>
        <mxCell id="xyxEFOUmgN-_FiiLnlNH-79" value="Servicio" style="whiteSpace=wrap;html=1;rounded=0;" vertex="1" parent="xyxEFOUmgN-_FiiLnlNH-1">
          <mxGeometry x="1630" y="330" width="120" height="60" as="geometry" />
        </mxCell>
        <mxCell id="xyxEFOUmgN-_FiiLnlNH-80" value="Instalación Deportiva" style="whiteSpace=wrap;html=1;rounded=0;dashed=1;" vertex="1" parent="xyxEFOUmgN-_FiiLnlNH-1">
          <mxGeometry x="1770" y="330" width="120" height="60" as="geometry" />
        </mxCell>
        <mxCell id="xyxEFOUmgN-_FiiLnlNH-81" value="time:DurationDescription" style="whiteSpace=wrap;html=1;rounded=0;" vertex="1" parent="xyxEFOUmgN-_FiiLnlNH-1">
          <mxGeometry x="1900" y="330" width="140" height="60" as="geometry" />
        </mxCell>
        <mxCell id="xyxEFOUmgN-_FiiLnlNH-82" value="PriceSpecification&lt;font style=&quot;font-size: 11px;&quot;&gt;&lt;br&gt;&lt;/font&gt;&lt;br&gt;&lt;div style=&quot;text-align: left;&quot;&gt;&lt;span style=&quot;background-color: initial;&quot;&gt;- Precio&lt;/span&gt;&lt;/div&gt;&lt;div style=&quot;text-align: left;&quot;&gt;&lt;span style=&quot;background-color: initial;&quot;&gt;- Moneda&lt;/span&gt;&lt;/div&gt;" style="whiteSpace=wrap;html=1;rounded=0;" vertex="1" parent="xyxEFOUmgN-_FiiLnlNH-1">
          <mxGeometry x="2180" y="320" width="120" height="70" as="geometry" />
        </mxCell>
        <mxCell id="xyxEFOUmgN-_FiiLnlNH-83" value="Entrenador" style="whiteSpace=wrap;html=1;rounded=0;dashed=1;" vertex="1" parent="xyxEFOUmgN-_FiiLnlNH-1">
          <mxGeometry x="1710" y="700" width="120" height="60" as="geometry" />
        </mxCell>
        <mxCell id="xyxEFOUmgN-_FiiLnlNH-107" value="Leyenda" style="swimlane;strokeColor=#080507;strokeWidth=2;fillColor=none;" vertex="1" parent="xyxEFOUmgN-_FiiLnlNH-1">
          <mxGeometry x="2110" y="590" width="190" height="130" as="geometry" />
        </mxCell>
        <mxCell id="xyxEFOUmgN-_FiiLnlNH-108" value="" style="whiteSpace=wrap;html=1;rounded=0;dashed=1;" vertex="1" parent="xyxEFOUmgN-_FiiLnlNH-107">
          <mxGeometry x="20" y="42.5" width="20" height="17.5" as="geometry" />
        </mxCell>
        <mxCell id="xyxEFOUmgN-_FiiLnlNH-109" value="Concepto ya existente" style="text;html=1;strokeColor=none;fillColor=none;align=center;verticalAlign=middle;whiteSpace=wrap;rounded=0;strokeWidth=2;" vertex="1" parent="xyxEFOUmgN-_FiiLnlNH-107">
          <mxGeometry x="50" y="37.5" width="130" height="30" as="geometry" />
        </mxCell>
        <mxCell id="xyxEFOUmgN-_FiiLnlNH-110" value="PoF = Part Of" style="text;html=1;strokeColor=none;fillColor=none;align=left;verticalAlign=middle;whiteSpace=wrap;rounded=0;" vertex="1" parent="xyxEFOUmgN-_FiiLnlNH-107">
          <mxGeometry x="20" y="71" width="150" height="20" as="geometry" />
        </mxCell>
        <mxCell id="xyxEFOUmgN-_FiiLnlNH-111" value="sc = Subclass Of" style="text;html=1;strokeColor=none;fillColor=none;align=left;verticalAlign=middle;whiteSpace=wrap;rounded=0;" vertex="1" parent="xyxEFOUmgN-_FiiLnlNH-107">
          <mxGeometry x="20" y="93" width="150" height="20" as="geometry" />
        </mxCell>
        <mxCell id="xyxEFOUmgN-_FiiLnlNH-112" value="foaf: Person" style="rounded=0;whiteSpace=wrap;html=1;" vertex="1" parent="xyxEFOUmgN-_FiiLnlNH-1">
          <mxGeometry x="1430" y="730" width="120" height="60" as="geometry" />
        </mxCell>
        <mxCell id="xyxEFOUmgN-_FiiLnlNH-128" value="sc" style="edgeStyle=orthogonalEdgeStyle;rounded=0;orthogonalLoop=1;jettySize=auto;html=1;entryX=0.5;entryY=0;entryDx=0;entryDy=0;exitX=0.5;exitY=1;exitDx=0;exitDy=0;" edge="1" parent="xyxEFOUmgN-_FiiLnlNH-1" source="xyxEFOUmgN-_FiiLnlNH-133" target="xyxEFOUmgN-_FiiLnlNH-129">
          <mxGeometry relative="1" as="geometry">
            <mxPoint x="1770" y="126" as="targetPoint" />
          </mxGeometry>
        </mxCell>
        <mxCell id="xyxEFOUmgN-_FiiLnlNH-129" value="bono" style="rounded=0;whiteSpace=wrap;html=1;" vertex="1" parent="xyxEFOUmgN-_FiiLnlNH-1">
          <mxGeometry x="1710" y="171" width="120" height="60" as="geometry" />
        </mxCell>
        <mxCell id="xyxEFOUmgN-_FiiLnlNH-130" value="sc" style="edgeStyle=orthogonalEdgeStyle;rounded=0;orthogonalLoop=1;jettySize=auto;html=1;exitX=0.5;exitY=1;exitDx=0;exitDy=0;entryX=0.5;entryY=0;entryDx=0;entryDy=0;" edge="1" parent="xyxEFOUmgN-_FiiLnlNH-1" source="xyxEFOUmgN-_FiiLnlNH-132" target="xyxEFOUmgN-_FiiLnlNH-131">
          <mxGeometry relative="1" as="geometry">
            <mxPoint x="1600" y="176" as="targetPoint" />
          </mxGeometry>
        </mxCell>
        <mxCell id="xyxEFOUmgN-_FiiLnlNH-131" value="individual" style="rounded=0;whiteSpace=wrap;html=1;" vertex="1" parent="xyxEFOUmgN-_FiiLnlNH-1">
          <mxGeometry x="1550" y="171" width="120" height="60" as="geometry" />
        </mxCell>
        <mxCell id="xyxEFOUmgN-_FiiLnlNH-132" value="Alquiler pista de padel" style="rounded=0;whiteSpace=wrap;html=1;" vertex="1" parent="xyxEFOUmgN-_FiiLnlNH-1">
          <mxGeometry x="1550" y="56" width="120" height="60" as="geometry" />
        </mxCell>
        <mxCell id="xyxEFOUmgN-_FiiLnlNH-133" value="Bono 10 clases zumba" style="rounded=0;whiteSpace=wrap;html=1;" vertex="1" parent="xyxEFOUmgN-_FiiLnlNH-1">
          <mxGeometry x="1710" y="56" width="120" height="60" as="geometry" />
        </mxCell>
        <mxCell id="xyxEFOUmgN-_FiiLnlNH-145" value="time:GeneralDate&lt;br&gt;TimeDescription" style="whiteSpace=wrap;html=1;rounded=0;" vertex="1" parent="xyxEFOUmgN-_FiiLnlNH-1">
          <mxGeometry x="2050" y="330" width="120" height="60" as="geometry" />
        </mxCell>
        <mxCell id="xyxEFOUmgN-_FiiLnlNH-148" value="Instalación Deportiva" style="swimlane;fontStyle=0;childLayout=stackLayout;horizontal=1;startSize=30;horizontalStack=0;resizeParent=1;resizeParentMax=0;resizeLast=0;collapsible=1;marginBottom=0;" vertex="1" parent="xyxEFOUmgN-_FiiLnlNH-1">
          <mxGeometry x="1220" y="600" width="140" height="90" as="geometry" />
        </mxCell>
        <mxCell id="xyxEFOUmgN-_FiiLnlNH-149" value=" - Nombre&#xa; - Email&#xa; - Nº Teléfono" style="text;strokeColor=none;fillColor=none;align=left;verticalAlign=middle;spacingLeft=4;spacingRight=4;overflow=hidden;points=[[0,0.5],[1,0.5]];portConstraint=eastwest;rotatable=0;" vertex="1" parent="xyxEFOUmgN-_FiiLnlNH-1">
          <mxGeometry x="1220" y="630" width="140" height="60" as="geometry" />
        </mxCell>
        <mxCell id="xyxEFOUmgN-_FiiLnlNH-150" value="" style="endArrow=none;html=1;rounded=0;strokeColor=#000000;entryX=0.992;entryY=0.319;entryDx=0;entryDy=0;exitX=0;exitY=0.319;exitDx=0;exitDy=0;entryPerimeter=0;exitPerimeter=0;" edge="1" parent="xyxEFOUmgN-_FiiLnlNH-1" source="xyxEFOUmgN-_FiiLnlNH-70" target="xyxEFOUmgN-_FiiLnlNH-70">
          <mxGeometry width="50" height="50" relative="1" as="geometry">
            <mxPoint x="1230" y="340" as="sourcePoint" />
            <mxPoint x="1280" y="290" as="targetPoint" />
          </mxGeometry>
        </mxCell>
        <mxCell id="xyxEFOUmgN-_FiiLnlNH-151" value="" style="endArrow=none;html=1;rounded=0;strokeColor=#000000;entryX=0.995;entryY=0.32;entryDx=0;entryDy=0;exitX=0.002;exitY=0.331;exitDx=0;exitDy=0;exitPerimeter=0;entryPerimeter=0;" edge="1" parent="xyxEFOUmgN-_FiiLnlNH-1" source="xyxEFOUmgN-_FiiLnlNH-82" target="xyxEFOUmgN-_FiiLnlNH-82">
          <mxGeometry width="50" height="50" relative="1" as="geometry">
            <mxPoint x="2180" y="350" as="sourcePoint" />
            <mxPoint x="2230" y="300" as="targetPoint" />
          </mxGeometry>
        </mxCell>
        <mxCell id="xyxEFOUmgN-_FiiLnlNH-157" value="Exhaustive disjoint" style="text;html=1;strokeColor=none;fillColor=none;align=left;verticalAlign=middle;whiteSpace=wrap;rounded=0;fontSize=11;" vertex="1" parent="xyxEFOUmgN-_FiiLnlNH-1">
          <mxGeometry x="1570" y="258" width="100" height="20" as="geometry" />
        </mxCell>
      </root>
    </mxGraphModel>
  </diagram>
  <diagram name="org" id="k7NAWLg-dY2BZkJILeEK">
    <mxGraphModel dx="1707" dy="818" grid="1" gridSize="10" guides="1" tooltips="1" connect="1" arrows="1" fold="1" page="1" pageScale="1" pageWidth="3300" pageHeight="4681" math="0" shadow="0">
      <root>
        <mxCell id="fsnDGS-jRI3k-qYa1nAe-0" />
        <mxCell id="fsnDGS-jRI3k-qYa1nAe-1" parent="fsnDGS-jRI3k-qYa1nAe-0" />
        <mxCell id="fsnDGS-jRI3k-qYa1nAe-10" value="" style="rounded=1;whiteSpace=wrap;html=1;labelBackgroundColor=none;strokeWidth=3;fillColor=none;strokeColor=#b85450;" vertex="1" parent="fsnDGS-jRI3k-qYa1nAe-1">
          <mxGeometry x="630" y="90" width="750" height="340" as="geometry" />
        </mxCell>
        <mxCell id="fsnDGS-jRI3k-qYa1nAe-63" style="edgeStyle=orthogonalEdgeStyle;rounded=0;orthogonalLoop=1;jettySize=auto;html=1;exitX=0.5;exitY=1;exitDx=0;exitDy=0;entryX=1.013;entryY=0.089;entryDx=0;entryDy=0;entryPerimeter=0;" edge="1" parent="fsnDGS-jRI3k-qYa1nAe-1" source="fsnDGS-jRI3k-qYa1nAe-70" target="fsnDGS-jRI3k-qYa1nAe-149">
          <mxGeometry relative="1" as="geometry" />
        </mxCell>
        <mxCell id="fsnDGS-jRI3k-qYa1nAe-64" value="gestiona" style="edgeLabel;html=1;align=center;verticalAlign=middle;resizable=0;points=[];" vertex="1" connectable="0" parent="fsnDGS-jRI3k-qYa1nAe-63">
          <mxGeometry x="-0.298" y="1" relative="1" as="geometry">
            <mxPoint x="-1" y="10" as="offset" />
          </mxGeometry>
        </mxCell>
        <mxCell id="fsnDGS-jRI3k-qYa1nAe-67" value="sc" style="edgeStyle=orthogonalEdgeStyle;rounded=0;orthogonalLoop=1;jettySize=auto;html=1;entryX=0.5;entryY=1;entryDx=0;entryDy=0;strokeColor=#000000;exitX=0.5;exitY=0;exitDx=0;exitDy=0;" edge="1" parent="fsnDGS-jRI3k-qYa1nAe-1" source="fsnDGS-jRI3k-qYa1nAe-70" target="fsnDGS-jRI3k-qYa1nAe-134">
          <mxGeometry relative="1" as="geometry">
            <Array as="points">
              <mxPoint x="1290" y="230" />
              <mxPoint x="1290" y="230" />
            </Array>
          </mxGeometry>
        </mxCell>
        <mxCell id="fsnDGS-jRI3k-qYa1nAe-70" value="&lt;div style=&quot;text-align: center;&quot;&gt;&lt;span style=&quot;background-color: initial;&quot;&gt;&amp;nbsp; &amp;nbsp; &amp;nbsp; Organización&lt;/span&gt;&lt;/div&gt;&lt;span style=&quot;&quot;&gt;&lt;br&gt;&amp;nbsp; - Nombre&lt;/span&gt;&lt;br style=&quot;padding: 0px; margin: 0px;&quot;&gt;&lt;span style=&quot;&quot;&gt;&amp;nbsp; - Email&lt;/span&gt;&lt;br style=&quot;padding: 0px; margin: 0px;&quot;&gt;&lt;span style=&quot;&quot;&gt;&amp;nbsp; - Nº Teléfono&lt;/span&gt;" style="rounded=0;whiteSpace=wrap;html=1;align=left;" vertex="1" parent="fsnDGS-jRI3k-qYa1nAe-1">
          <mxGeometry x="1230" y="320" width="120" height="80" as="geometry" />
        </mxCell>
        <mxCell id="fsnDGS-jRI3k-qYa1nAe-71" style="edgeStyle=orthogonalEdgeStyle;rounded=0;orthogonalLoop=1;jettySize=auto;html=1;exitX=0.999;exitY=0.666;exitDx=0;exitDy=0;entryX=0;entryY=0.25;entryDx=0;entryDy=0;exitPerimeter=0;" edge="1" parent="fsnDGS-jRI3k-qYa1nAe-1" source="fsnDGS-jRI3k-qYa1nAe-76" target="fsnDGS-jRI3k-qYa1nAe-70">
          <mxGeometry relative="1" as="geometry">
            <mxPoint x="1230" y="340" as="targetPoint" />
            <Array as="points" />
          </mxGeometry>
        </mxCell>
        <mxCell id="fsnDGS-jRI3k-qYa1nAe-72" value="org:organization" style="edgeLabel;html=1;align=center;verticalAlign=middle;resizable=0;points=[];" vertex="1" connectable="0" parent="fsnDGS-jRI3k-qYa1nAe-71">
          <mxGeometry x="0.0885" y="3" relative="1" as="geometry">
            <mxPoint x="-5" y="3" as="offset" />
          </mxGeometry>
        </mxCell>
        <mxCell id="fsnDGS-jRI3k-qYa1nAe-73" value="org:role" style="edgeStyle=orthogonalEdgeStyle;rounded=0;orthogonalLoop=1;jettySize=auto;html=1;exitX=0;exitY=0.5;exitDx=0;exitDy=0;entryX=1;entryY=0.5;entryDx=0;entryDy=0;" edge="1" parent="fsnDGS-jRI3k-qYa1nAe-1" source="fsnDGS-jRI3k-qYa1nAe-76" target="fsnDGS-jRI3k-qYa1nAe-135">
          <mxGeometry relative="1" as="geometry">
            <mxPoint x="642" y="346" as="targetPoint" />
          </mxGeometry>
        </mxCell>
        <mxCell id="fsnDGS-jRI3k-qYa1nAe-74" style="edgeStyle=orthogonalEdgeStyle;rounded=0;orthogonalLoop=1;jettySize=auto;html=1;strokeColor=#000000;entryX=0;entryY=0.5;entryDx=0;entryDy=0;exitX=0.5;exitY=1;exitDx=0;exitDy=0;" edge="1" parent="fsnDGS-jRI3k-qYa1nAe-1" source="fsnDGS-jRI3k-qYa1nAe-76" target="fsnDGS-jRI3k-qYa1nAe-149">
          <mxGeometry relative="1" as="geometry">
            <Array as="points">
              <mxPoint x="917" y="500" />
              <mxPoint x="1110" y="500" />
            </Array>
          </mxGeometry>
        </mxCell>
        <mxCell id="fsnDGS-jRI3k-qYa1nAe-75" value="establecida en" style="edgeLabel;html=1;align=center;verticalAlign=middle;resizable=0;points=[];" vertex="1" connectable="0" parent="fsnDGS-jRI3k-qYa1nAe-74">
          <mxGeometry x="0.0327" relative="1" as="geometry">
            <mxPoint x="20" as="offset" />
          </mxGeometry>
        </mxCell>
        <mxCell id="fsnDGS-jRI3k-qYa1nAe-76" value="org:Membership" style="rounded=0;whiteSpace=wrap;html=1;" vertex="1" parent="fsnDGS-jRI3k-qYa1nAe-1">
          <mxGeometry x="857" y="301" width="120" height="60" as="geometry" />
        </mxCell>
        <mxCell id="fsnDGS-jRI3k-qYa1nAe-85" value="Org" style="text;html=1;strokeColor=#b85450;fillColor=#f8cecc;align=center;verticalAlign=middle;whiteSpace=wrap;rounded=0;labelBackgroundColor=none;strokeWidth=3;" vertex="1" parent="fsnDGS-jRI3k-qYa1nAe-1">
          <mxGeometry x="690" y="90" width="60" height="30" as="geometry" />
        </mxCell>
        <mxCell id="fsnDGS-jRI3k-qYa1nAe-113" value="foaf:Person" style="rounded=0;whiteSpace=wrap;html=1;" vertex="1" parent="fsnDGS-jRI3k-qYa1nAe-1">
          <mxGeometry x="890" y="24" width="120" height="60" as="geometry" />
        </mxCell>
        <mxCell id="fsnDGS-jRI3k-qYa1nAe-114" value="org:member" style="edgeStyle=orthogonalEdgeStyle;rounded=0;orthogonalLoop=1;jettySize=auto;html=1;exitX=1;exitY=0.5;exitDx=0;exitDy=0;" edge="1" parent="fsnDGS-jRI3k-qYa1nAe-1" source="fsnDGS-jRI3k-qYa1nAe-117" target="fsnDGS-jRI3k-qYa1nAe-76">
          <mxGeometry x="0.3935" relative="1" as="geometry">
            <mxPoint as="offset" />
            <Array as="points">
              <mxPoint x="867" y="200" />
            </Array>
          </mxGeometry>
        </mxCell>
        <mxCell id="fsnDGS-jRI3k-qYa1nAe-115" style="edgeStyle=orthogonalEdgeStyle;rounded=0;orthogonalLoop=1;jettySize=auto;html=1;entryX=0;entryY=0.5;entryDx=0;entryDy=0;exitX=0.5;exitY=0;exitDx=0;exitDy=0;" edge="1" parent="fsnDGS-jRI3k-qYa1nAe-1" source="fsnDGS-jRI3k-qYa1nAe-117" target="fsnDGS-jRI3k-qYa1nAe-113">
          <mxGeometry relative="1" as="geometry">
            <Array as="points">
              <mxPoint x="785" y="54" />
            </Array>
          </mxGeometry>
        </mxCell>
        <mxCell id="fsnDGS-jRI3k-qYa1nAe-116" value="sc" style="edgeLabel;html=1;align=center;verticalAlign=middle;resizable=0;points=[];" vertex="1" connectable="0" parent="fsnDGS-jRI3k-qYa1nAe-115">
          <mxGeometry x="-0.1633" y="-2" relative="1" as="geometry">
            <mxPoint x="-2" y="62" as="offset" />
          </mxGeometry>
        </mxCell>
        <mxCell id="fsnDGS-jRI3k-qYa1nAe-117" value="Monitor" style="rounded=0;whiteSpace=wrap;html=1;" vertex="1" parent="fsnDGS-jRI3k-qYa1nAe-1">
          <mxGeometry x="725" y="171" width="120" height="60" as="geometry" />
        </mxCell>
        <mxCell id="fsnDGS-jRI3k-qYa1nAe-118" value="" style="edgeStyle=orthogonalEdgeStyle;rounded=0;orthogonalLoop=1;jettySize=auto;html=1;entryX=0.75;entryY=0;entryDx=0;entryDy=0;exitX=0.5;exitY=1;exitDx=0;exitDy=0;" edge="1" parent="fsnDGS-jRI3k-qYa1nAe-1" source="fsnDGS-jRI3k-qYa1nAe-122" target="fsnDGS-jRI3k-qYa1nAe-76">
          <mxGeometry relative="1" as="geometry">
            <mxPoint x="1107" y="254" as="targetPoint" />
            <Array as="points" />
          </mxGeometry>
        </mxCell>
        <mxCell id="fsnDGS-jRI3k-qYa1nAe-119" value="org:member" style="edgeLabel;html=1;align=center;verticalAlign=middle;resizable=0;points=[];" vertex="1" connectable="0" parent="fsnDGS-jRI3k-qYa1nAe-118">
          <mxGeometry x="-0.2429" relative="1" as="geometry">
            <mxPoint x="-33" as="offset" />
          </mxGeometry>
        </mxCell>
        <mxCell id="fsnDGS-jRI3k-qYa1nAe-120" style="edgeStyle=orthogonalEdgeStyle;rounded=0;orthogonalLoop=1;jettySize=auto;html=1;entryX=1;entryY=0.5;entryDx=0;entryDy=0;exitX=0.5;exitY=0;exitDx=0;exitDy=0;" edge="1" parent="fsnDGS-jRI3k-qYa1nAe-1" source="fsnDGS-jRI3k-qYa1nAe-122" target="fsnDGS-jRI3k-qYa1nAe-113">
          <mxGeometry relative="1" as="geometry">
            <Array as="points">
              <mxPoint x="1120" y="54" />
            </Array>
            <mxPoint x="1120" y="140" as="sourcePoint" />
            <mxPoint x="1010" y="24" as="targetPoint" />
          </mxGeometry>
        </mxCell>
        <mxCell id="fsnDGS-jRI3k-qYa1nAe-121" value="sc" style="edgeLabel;html=1;align=center;verticalAlign=middle;resizable=0;points=[];" vertex="1" connectable="0" parent="fsnDGS-jRI3k-qYa1nAe-120">
          <mxGeometry x="0.2617" relative="1" as="geometry">
            <mxPoint x="26" y="86" as="offset" />
          </mxGeometry>
        </mxCell>
        <mxCell id="fsnDGS-jRI3k-qYa1nAe-122" value="Entrenador" style="rounded=0;whiteSpace=wrap;html=1;" vertex="1" parent="fsnDGS-jRI3k-qYa1nAe-1">
          <mxGeometry x="1060" y="170" width="120" height="60" as="geometry" />
        </mxCell>
        <mxCell id="fsnDGS-jRI3k-qYa1nAe-134" value="org:Organization" style="rounded=0;whiteSpace=wrap;html=1;" vertex="1" parent="fsnDGS-jRI3k-qYa1nAe-1">
          <mxGeometry x="1230" y="160" width="120" height="60" as="geometry" />
        </mxCell>
        <mxCell id="fsnDGS-jRI3k-qYa1nAe-135" value="org:Role" style="rounded=0;whiteSpace=wrap;html=1;" vertex="1" parent="fsnDGS-jRI3k-qYa1nAe-1">
          <mxGeometry x="657" y="299" width="120" height="60" as="geometry" />
        </mxCell>
        <mxCell id="fsnDGS-jRI3k-qYa1nAe-140" style="edgeStyle=orthogonalEdgeStyle;rounded=0;orthogonalLoop=1;jettySize=auto;html=1;entryX=0.5;entryY=1;entryDx=0;entryDy=0;exitX=0.5;exitY=0;exitDx=0;exitDy=0;" edge="1" parent="fsnDGS-jRI3k-qYa1nAe-1" source="fsnDGS-jRI3k-qYa1nAe-144" target="fsnDGS-jRI3k-qYa1nAe-113">
          <mxGeometry relative="1" as="geometry">
            <Array as="points">
              <mxPoint x="950" y="100" />
              <mxPoint x="950" y="100" />
            </Array>
          </mxGeometry>
        </mxCell>
        <mxCell id="fsnDGS-jRI3k-qYa1nAe-141" value="sc" style="edgeLabel;html=1;align=center;verticalAlign=middle;resizable=0;points=[];" vertex="1" connectable="0" parent="fsnDGS-jRI3k-qYa1nAe-140">
          <mxGeometry x="0.199" y="-3" relative="1" as="geometry">
            <mxPoint x="-3" y="21" as="offset" />
          </mxGeometry>
        </mxCell>
        <mxCell id="fsnDGS-jRI3k-qYa1nAe-142" style="edgeStyle=orthogonalEdgeStyle;rounded=0;orthogonalLoop=1;jettySize=auto;html=1;entryX=0.5;entryY=0;entryDx=0;entryDy=0;exitX=0.5;exitY=1;exitDx=0;exitDy=0;" edge="1" parent="fsnDGS-jRI3k-qYa1nAe-1" source="fsnDGS-jRI3k-qYa1nAe-144" target="fsnDGS-jRI3k-qYa1nAe-76">
          <mxGeometry relative="1" as="geometry" />
        </mxCell>
        <mxCell id="fsnDGS-jRI3k-qYa1nAe-143" value="org:member" style="edgeLabel;html=1;align=center;verticalAlign=middle;resizable=0;points=[];" vertex="1" connectable="0" parent="fsnDGS-jRI3k-qYa1nAe-142">
          <mxGeometry x="-0.0639" y="-2" relative="1" as="geometry">
            <mxPoint as="offset" />
          </mxGeometry>
        </mxCell>
        <mxCell id="fsnDGS-jRI3k-qYa1nAe-144" value="Limpiador" style="rounded=0;whiteSpace=wrap;html=1;" vertex="1" parent="fsnDGS-jRI3k-qYa1nAe-1">
          <mxGeometry x="890" y="170" width="120" height="60" as="geometry" />
        </mxCell>
        <mxCell id="fsnDGS-jRI3k-qYa1nAe-148" value="Instalación Deportiva" style="swimlane;fontStyle=0;childLayout=stackLayout;horizontal=1;startSize=30;horizontalStack=0;resizeParent=1;resizeParentMax=0;resizeLast=0;collapsible=1;marginBottom=0;" vertex="1" parent="fsnDGS-jRI3k-qYa1nAe-1">
          <mxGeometry x="1110" y="441" width="140" height="90" as="geometry" />
        </mxCell>
        <mxCell id="fsnDGS-jRI3k-qYa1nAe-149" value=" - Nombre&#xa; - Email&#xa; - Nº Teléfono" style="text;strokeColor=none;fillColor=none;align=left;verticalAlign=middle;spacingLeft=4;spacingRight=4;overflow=hidden;points=[[0,0.5],[1,0.5]];portConstraint=eastwest;rotatable=0;" vertex="1" parent="fsnDGS-jRI3k-qYa1nAe-1">
          <mxGeometry x="1110" y="471" width="140" height="60" as="geometry" />
        </mxCell>
        <mxCell id="fsnDGS-jRI3k-qYa1nAe-150" value="" style="endArrow=none;html=1;rounded=0;strokeColor=#000000;entryX=0.992;entryY=0.319;entryDx=0;entryDy=0;exitX=0;exitY=0.319;exitDx=0;exitDy=0;entryPerimeter=0;exitPerimeter=0;" edge="1" parent="fsnDGS-jRI3k-qYa1nAe-1" source="fsnDGS-jRI3k-qYa1nAe-70" target="fsnDGS-jRI3k-qYa1nAe-70">
          <mxGeometry width="50" height="50" relative="1" as="geometry">
            <mxPoint x="1230" y="340" as="sourcePoint" />
            <mxPoint x="1280" y="290" as="targetPoint" />
          </mxGeometry>
        </mxCell>
      </root>
    </mxGraphModel>
  </diagram>
  <diagram name="odrl" id="g76fWz4pz431GTFg0Of0">
    <mxGraphModel dx="4419" dy="536" grid="1" gridSize="10" guides="1" tooltips="1" connect="1" arrows="1" fold="1" page="1" pageScale="1" pageWidth="3300" pageHeight="4681" math="0" shadow="0">
      <root>
        <mxCell id="HH2Kx52H5dM6Ql8Z7-Zi-0" />
        <mxCell id="HH2Kx52H5dM6Ql8Z7-Zi-1" parent="HH2Kx52H5dM6Ql8Z7-Zi-0" />
        <mxCell id="HH2Kx52H5dM6Ql8Z7-Zi-6" value="" style="rounded=1;whiteSpace=wrap;html=1;labelBackgroundColor=none;strokeWidth=3;fillColor=none;strokeColor=#d79b00;" vertex="1" parent="HH2Kx52H5dM6Ql8Z7-Zi-1">
          <mxGeometry x="-120" y="178" width="660" height="340" as="geometry" />
        </mxCell>
        <mxCell id="HH2Kx52H5dM6Ql8Z7-Zi-68" style="edgeStyle=orthogonalEdgeStyle;rounded=0;orthogonalLoop=1;jettySize=auto;html=1;strokeColor=#000000;exitX=0;exitY=0.75;exitDx=0;exitDy=0;entryX=1;entryY=0.5;entryDx=0;entryDy=0;" edge="1" parent="HH2Kx52H5dM6Ql8Z7-Zi-1" source="HH2Kx52H5dM6Ql8Z7-Zi-70" target="HH2Kx52H5dM6Ql8Z7-Zi-93">
          <mxGeometry relative="1" as="geometry">
            <Array as="points">
              <mxPoint x="590" y="380" />
              <mxPoint x="590" y="382" />
            </Array>
            <mxPoint x="580" y="340" as="targetPoint" />
          </mxGeometry>
        </mxCell>
        <mxCell id="HH2Kx52H5dM6Ql8Z7-Zi-69" value="hasRule" style="edgeLabel;html=1;align=center;verticalAlign=middle;resizable=0;points=[];" vertex="1" connectable="0" parent="HH2Kx52H5dM6Ql8Z7-Zi-68">
          <mxGeometry x="-0.1043" y="4" relative="1" as="geometry">
            <mxPoint x="-8" y="-4" as="offset" />
          </mxGeometry>
        </mxCell>
        <mxCell id="HH2Kx52H5dM6Ql8Z7-Zi-70" value="&lt;div style=&quot;text-align: center;&quot;&gt;&lt;span style=&quot;background-color: initial;&quot;&gt;&amp;nbsp; &amp;nbsp; &amp;nbsp; Organización&lt;/span&gt;&lt;/div&gt;&lt;span style=&quot;&quot;&gt;&lt;br&gt;&amp;nbsp; - Nombre&lt;/span&gt;&lt;br style=&quot;padding: 0px; margin: 0px;&quot;&gt;&lt;span style=&quot;&quot;&gt;&amp;nbsp; - Email&lt;/span&gt;&lt;br style=&quot;padding: 0px; margin: 0px;&quot;&gt;&lt;span style=&quot;&quot;&gt;&amp;nbsp; - Nº Teléfono&lt;/span&gt;" style="rounded=0;whiteSpace=wrap;html=1;align=left;" vertex="1" parent="HH2Kx52H5dM6Ql8Z7-Zi-1">
          <mxGeometry x="620" y="332" width="120" height="80" as="geometry" />
        </mxCell>
        <mxCell id="HH2Kx52H5dM6Ql8Z7-Zi-86" value="" style="edgeStyle=orthogonalEdgeStyle;rounded=0;orthogonalLoop=1;jettySize=auto;html=1;" edge="1" parent="HH2Kx52H5dM6Ql8Z7-Zi-1" source="HH2Kx52H5dM6Ql8Z7-Zi-93" target="HH2Kx52H5dM6Ql8Z7-Zi-96">
          <mxGeometry relative="1" as="geometry" />
        </mxCell>
        <mxCell id="HH2Kx52H5dM6Ql8Z7-Zi-87" value="odrl:target" style="edgeLabel;html=1;align=center;verticalAlign=middle;resizable=0;points=[];" vertex="1" connectable="0" parent="HH2Kx52H5dM6Ql8Z7-Zi-86">
          <mxGeometry x="0.2667" y="-2" relative="1" as="geometry">
            <mxPoint y="2" as="offset" />
          </mxGeometry>
        </mxCell>
        <mxCell id="HH2Kx52H5dM6Ql8Z7-Zi-88" value="" style="edgeStyle=orthogonalEdgeStyle;rounded=0;orthogonalLoop=1;jettySize=auto;html=1;entryX=1;entryY=0.5;entryDx=0;entryDy=0;exitX=0;exitY=0.5;exitDx=0;exitDy=0;" edge="1" parent="HH2Kx52H5dM6Ql8Z7-Zi-1" source="HH2Kx52H5dM6Ql8Z7-Zi-93">
          <mxGeometry relative="1" as="geometry">
            <mxPoint x="390" y="373" as="sourcePoint" />
            <mxPoint x="240" y="298" as="targetPoint" />
            <Array as="points">
              <mxPoint x="350" y="383" />
              <mxPoint x="350" y="298" />
            </Array>
          </mxGeometry>
        </mxCell>
        <mxCell id="HH2Kx52H5dM6Ql8Z7-Zi-89" value="odrl:action" style="edgeLabel;html=1;align=center;verticalAlign=middle;resizable=0;points=[];" vertex="1" connectable="0" parent="HH2Kx52H5dM6Ql8Z7-Zi-88">
          <mxGeometry x="0.3787" y="5" relative="1" as="geometry">
            <mxPoint x="-13" y="-5" as="offset" />
          </mxGeometry>
        </mxCell>
        <mxCell id="HH2Kx52H5dM6Ql8Z7-Zi-90" value="" style="edgeStyle=orthogonalEdgeStyle;rounded=0;orthogonalLoop=1;jettySize=auto;html=1;" edge="1" parent="HH2Kx52H5dM6Ql8Z7-Zi-1" source="HH2Kx52H5dM6Ql8Z7-Zi-93" target="HH2Kx52H5dM6Ql8Z7-Zi-105">
          <mxGeometry relative="1" as="geometry">
            <Array as="points">
              <mxPoint x="350" y="383" />
              <mxPoint x="350" y="238" />
            </Array>
          </mxGeometry>
        </mxCell>
        <mxCell id="HH2Kx52H5dM6Ql8Z7-Zi-91" value="odrl:constraint" style="edgeLabel;html=1;align=center;verticalAlign=middle;resizable=0;points=[];" vertex="1" connectable="0" parent="HH2Kx52H5dM6Ql8Z7-Zi-90">
          <mxGeometry x="0.5164" relative="1" as="geometry">
            <mxPoint x="-13" as="offset" />
          </mxGeometry>
        </mxCell>
        <mxCell id="HH2Kx52H5dM6Ql8Z7-Zi-92" value="sc" style="edgeStyle=orthogonalEdgeStyle;rounded=0;orthogonalLoop=1;jettySize=auto;html=1;" edge="1" parent="HH2Kx52H5dM6Ql8Z7-Zi-1" source="HH2Kx52H5dM6Ql8Z7-Zi-93" target="HH2Kx52H5dM6Ql8Z7-Zi-123">
          <mxGeometry relative="1" as="geometry" />
        </mxCell>
        <mxCell id="HH2Kx52H5dM6Ql8Z7-Zi-93" value="Obligatorio llevar gorro" style="whiteSpace=wrap;html=1;rounded=0;" vertex="1" parent="HH2Kx52H5dM6Ql8Z7-Zi-1">
          <mxGeometry x="390" y="352" width="120" height="60" as="geometry" />
        </mxCell>
        <mxCell id="HH2Kx52H5dM6Ql8Z7-Zi-94" style="edgeStyle=orthogonalEdgeStyle;rounded=0;orthogonalLoop=1;jettySize=auto;html=1;" edge="1" parent="HH2Kx52H5dM6Ql8Z7-Zi-1" source="HH2Kx52H5dM6Ql8Z7-Zi-96" target="HH2Kx52H5dM6Ql8Z7-Zi-126">
          <mxGeometry relative="1" as="geometry" />
        </mxCell>
        <mxCell id="HH2Kx52H5dM6Ql8Z7-Zi-95" value="sc" style="edgeLabel;html=1;align=center;verticalAlign=middle;resizable=0;points=[];" vertex="1" connectable="0" parent="HH2Kx52H5dM6Ql8Z7-Zi-94">
          <mxGeometry x="-0.2398" relative="1" as="geometry">
            <mxPoint as="offset" />
          </mxGeometry>
        </mxCell>
        <mxCell id="HH2Kx52H5dM6Ql8Z7-Zi-96" value="Gorro de baño" style="whiteSpace=wrap;html=1;rounded=0;" vertex="1" parent="HH2Kx52H5dM6Ql8Z7-Zi-1">
          <mxGeometry x="120" y="353" width="120" height="60" as="geometry" />
        </mxCell>
        <mxCell id="HH2Kx52H5dM6Ql8Z7-Zi-97" value="sc" style="edgeStyle=orthogonalEdgeStyle;rounded=0;orthogonalLoop=1;jettySize=auto;html=1;" edge="1" parent="HH2Kx52H5dM6Ql8Z7-Zi-1" source="HH2Kx52H5dM6Ql8Z7-Zi-98" target="HH2Kx52H5dM6Ql8Z7-Zi-125">
          <mxGeometry relative="1" as="geometry" />
        </mxCell>
        <mxCell id="HH2Kx52H5dM6Ql8Z7-Zi-98" value="LLevar puesto" style="whiteSpace=wrap;html=1;rounded=0;" vertex="1" parent="HH2Kx52H5dM6Ql8Z7-Zi-1">
          <mxGeometry x="120" y="278" width="120" height="60" as="geometry" />
        </mxCell>
        <mxCell id="HH2Kx52H5dM6Ql8Z7-Zi-99" value="" style="edgeStyle=orthogonalEdgeStyle;rounded=0;orthogonalLoop=1;jettySize=auto;html=1;exitX=0;exitY=0.5;exitDx=0;exitDy=0;" edge="1" parent="HH2Kx52H5dM6Ql8Z7-Zi-1" source="HH2Kx52H5dM6Ql8Z7-Zi-93" target="HH2Kx52H5dM6Ql8Z7-Zi-102">
          <mxGeometry relative="1" as="geometry">
            <mxPoint x="380" y="398" as="sourcePoint" />
            <Array as="points">
              <mxPoint x="350" y="383" />
              <mxPoint x="350" y="468" />
            </Array>
          </mxGeometry>
        </mxCell>
        <mxCell id="HH2Kx52H5dM6Ql8Z7-Zi-100" value="odrl:asignee" style="edgeLabel;html=1;align=center;verticalAlign=middle;resizable=0;points=[];" vertex="1" connectable="0" parent="HH2Kx52H5dM6Ql8Z7-Zi-99">
          <mxGeometry x="0.7106" y="1" relative="1" as="geometry">
            <mxPoint x="26" y="-1" as="offset" />
          </mxGeometry>
        </mxCell>
        <mxCell id="HH2Kx52H5dM6Ql8Z7-Zi-101" value="sc" style="edgeStyle=orthogonalEdgeStyle;rounded=0;orthogonalLoop=1;jettySize=auto;html=1;entryX=1;entryY=0.5;entryDx=0;entryDy=0;" edge="1" parent="HH2Kx52H5dM6Ql8Z7-Zi-1" source="HH2Kx52H5dM6Ql8Z7-Zi-102" target="HH2Kx52H5dM6Ql8Z7-Zi-127">
          <mxGeometry relative="1" as="geometry" />
        </mxCell>
        <mxCell id="HH2Kx52H5dM6Ql8Z7-Zi-102" value="Clientes" style="whiteSpace=wrap;html=1;rounded=0;" vertex="1" parent="HH2Kx52H5dM6Ql8Z7-Zi-1">
          <mxGeometry x="120" y="428" width="120" height="60" as="geometry" />
        </mxCell>
        <mxCell id="HH2Kx52H5dM6Ql8Z7-Zi-103" value="Odrl" style="text;html=1;strokeColor=#d79b00;fillColor=#ffe6cc;align=center;verticalAlign=middle;whiteSpace=wrap;rounded=0;labelBackgroundColor=none;strokeWidth=3;" vertex="1" parent="HH2Kx52H5dM6Ql8Z7-Zi-1">
          <mxGeometry x="340" y="178" width="100" height="30" as="geometry" />
        </mxCell>
        <mxCell id="HH2Kx52H5dM6Ql8Z7-Zi-104" value="sc" style="edgeStyle=orthogonalEdgeStyle;rounded=0;orthogonalLoop=1;jettySize=auto;html=1;entryX=1;entryY=0.5;entryDx=0;entryDy=0;" edge="1" parent="HH2Kx52H5dM6Ql8Z7-Zi-1" source="HH2Kx52H5dM6Ql8Z7-Zi-105" target="HH2Kx52H5dM6Ql8Z7-Zi-124">
          <mxGeometry relative="1" as="geometry" />
        </mxCell>
        <mxCell id="HH2Kx52H5dM6Ql8Z7-Zi-105" value="En la piscina" style="whiteSpace=wrap;html=1;rounded=0;" vertex="1" parent="HH2Kx52H5dM6Ql8Z7-Zi-1">
          <mxGeometry x="120" y="208" width="120" height="60" as="geometry" />
        </mxCell>
        <mxCell id="HH2Kx52H5dM6Ql8Z7-Zi-123" value="odrl:Rule" style="whiteSpace=wrap;html=1;rounded=0;" vertex="1" parent="HH2Kx52H5dM6Ql8Z7-Zi-1">
          <mxGeometry x="390" y="248" width="120" height="60" as="geometry" />
        </mxCell>
        <mxCell id="HH2Kx52H5dM6Ql8Z7-Zi-124" value="odrl:Constraint" style="whiteSpace=wrap;html=1;rounded=0;" vertex="1" parent="HH2Kx52H5dM6Ql8Z7-Zi-1">
          <mxGeometry x="-80" y="208" width="120" height="60" as="geometry" />
        </mxCell>
        <mxCell id="HH2Kx52H5dM6Ql8Z7-Zi-125" value="odrl:Action" style="whiteSpace=wrap;html=1;rounded=0;" vertex="1" parent="HH2Kx52H5dM6Ql8Z7-Zi-1">
          <mxGeometry x="-80" y="278" width="120" height="60" as="geometry" />
        </mxCell>
        <mxCell id="HH2Kx52H5dM6Ql8Z7-Zi-126" value="odrl:Asset" style="whiteSpace=wrap;html=1;rounded=0;" vertex="1" parent="HH2Kx52H5dM6Ql8Z7-Zi-1">
          <mxGeometry x="-80" y="353" width="120" height="60" as="geometry" />
        </mxCell>
        <mxCell id="HH2Kx52H5dM6Ql8Z7-Zi-127" value="odrl:Party" style="whiteSpace=wrap;html=1;rounded=0;" vertex="1" parent="HH2Kx52H5dM6Ql8Z7-Zi-1">
          <mxGeometry x="-80" y="428" width="120" height="60" as="geometry" />
        </mxCell>
        <mxCell id="HH2Kx52H5dM6Ql8Z7-Zi-150" value="" style="endArrow=none;html=1;rounded=0;strokeColor=#000000;entryX=0.992;entryY=0.319;entryDx=0;entryDy=0;exitX=0;exitY=0.319;exitDx=0;exitDy=0;entryPerimeter=0;exitPerimeter=0;" edge="1" parent="HH2Kx52H5dM6Ql8Z7-Zi-1" source="HH2Kx52H5dM6Ql8Z7-Zi-70" target="HH2Kx52H5dM6Ql8Z7-Zi-70">
          <mxGeometry width="50" height="50" relative="1" as="geometry">
            <mxPoint x="1230" y="340" as="sourcePoint" />
            <mxPoint x="1280" y="290" as="targetPoint" />
          </mxGeometry>
        </mxCell>
      </root>
    </mxGraphModel>
  </diagram>
</mxfile>
